<?xml version="1.0" encoding="UTF-8"?>
<svg width="40px" height="36px" viewBox="0 0 40 36" version="1.1" xmlns="http://www.w3.org/2000/svg" xmlns:xlink="http://www.w3.org/1999/xlink">
    <!-- Generator: Sketch 60.1 (88133) - https://sketch.com -->
    <title>Group</title>
    <desc>Created with Sketch.</desc>
    <g id="最终版" stroke="none" stroke-width="1" fill="none" fill-rule="evenodd">
        <g id="01添加角色" transform="translate(-60.000000, -46.000000)" fill="#FFFFFF">
            <g id="Group" transform="translate(60.000000, 46.000000)">
                <path d="M28.3640403,8.99626631 C27.5944715,8.07816764 26.3467838,8.07816764 25.577215,8.99626631 C24.807595,9.91430388 24.807595,11.4027014 25.577215,12.3208001 C27.8859725,15.0752182 27.8859725,19.5404108 25.577215,22.2945846 C24.807595,23.2126832 24.807595,24.7010807 25.577215,25.6191183 C26.3467838,26.537217 27.5944715,26.537217 28.3640403,25.6191183 C32.2119866,21.0288694 32.2119866,13.586332 28.3640403,8.99577757 L28.3640403,8.99626631 Z" id="Fill-1"></path>
                <path d="M17.7146723,0.53130035 L8.57141266,8.29344652 L2.85416759,8.29344652 C1.26492404,8.29344652 0,9.72813091 0,11.4977074 L0,24.4935111 C0,26.2392612 1.27773199,27.6978349 2.85416759,27.6978349 L8.57141266,27.6978349 L17.7146723,35.4599811 C18.985889,36.5389096 20,35.9484835 20,34.1579172 L20,1.8335533 C20,0.0654266045 18.9765336,-0.539749126 17.7146723,0.53155248 L17.7146723,0.53130035 Z" id="Fill-3"></path>
                <path d="M33.9306843,2.08541853 C33.0313071,1.15101434 31.5735512,1.15101434 30.6743534,2.08541853 C29.7752155,3.01951191 29.7752155,4.53394041 30.6743534,5.46809596 C36.9687378,12.006874 36.9687378,22.6087437 30.6743534,29.1475218 C29.7752155,30.0816151 29.7752155,31.5961058 30.6743534,32.5301992 C31.5737906,33.4642926 33.0315464,33.4642926 33.9306843,32.5301992 C42.0231052,24.1231723 42.0231052,10.4924455 33.9306843,2.08516988 L33.9306843,2.08541853 Z" id="Fill-4"></path>
            </g>
        </g>
    </g>
</svg>