<?xml version="1.0" encoding="UTF-8"?>
<svg width="36px" height="29px" viewBox="0 0 36 29" version="1.1" xmlns="http://www.w3.org/2000/svg" xmlns:xlink="http://www.w3.org/1999/xlink">
    <!-- Generator: Sketch 60.1 (88133) - https://sketch.com -->
    <title>Fill 1</title>
    <desc>Created with Sketch.</desc>
    <g id="最终版" stroke="none" stroke-width="1" fill="none" fill-rule="evenodd">
        <g id="13教师模式1" transform="translate(-547.000000, -50.000000)" fill="#FFFFFF">
            <path d="M554.00354,57.9133273 L554.00354,69.9801307 C554.00354,69.9801307 554.00354,70.5255658 554.233499,70.7809584 C554.4635,71.036351 554.926931,70.9979516 554.926931,70.9979516 L573.99578,70.9979516 C573.99578,70.9979516 574.503992,71.0263956 574.76887,70.7519972 C575.033579,70.4774265 574.995866,69.9914221 574.995866,69.9914221 L574.993411,57.9192316 C574.993411,57.9192316 575.049959,57.4823577 574.831725,57.2241207 C574.613279,56.9658407 574.121405,57.0016973 574.121405,57.0016973 L554.988262,57.0016973 C554.988262,57.0016973 554.496896,56.9786405 554.23151,57.2241207 C553.966335,57.4695579 554.001551,57.9128101 554.001551,57.9128101 L554.00354,57.9133273 Z M547,59.6206603 C547,60.4140367 547.416496,61.0000039 548.20307,61.0000039 C548.989776,61.0000039 549.364069,60.4151006 549.364069,59.6206603 L549.364069,53.4022883 C549.364069,53.0658858 549.430821,52.8305503 549.63033,52.6322727 C549.829839,52.4338621 550.039975,52.3924601 550.377731,52.3924601 L556.64911,52.3924601 C557.432565,52.3924601 558,51.9497154 558,51.2143197 C558,50.4791012 557.433576,50.0000039 556.64911,50.0000039 L549.836338,50.0000039 C548.273379,49.9973926 547,51.2908735 547,52.8776706 L547,59.6206603 Z M547,69.3792147 C547,68.5859148 547.416496,68.0000039 548.20307,68.0000039 C548.989776,68.0000039 549.364069,68.584851 549.364069,69.3792147 L549.364069,75.598007 C549.364069,75.9344215 549.430821,76.16969 549.63033,76.3681258 C549.829839,76.5663399 550.039975,76.6079153 550.377731,76.6079153 L556.64911,76.6079153 C557.432565,76.6079153 558,77.0506172 558,77.7857649 C558,78.5209125 557.433576,79.0000039 556.64911,79.0000039 L549.836338,79.0000039 C548.273379,79.0000039 547,77.7083762 547,76.1217321 L547,69.3792147 Z M582.999649,59.6206603 C582.999649,60.4140367 582.582998,61.0000039 581.796465,61.0000039 C581.009976,61.0000039 580.635527,60.4151006 580.635527,59.6206603 L580.635527,53.4022883 C580.635527,53.0658858 580.568778,52.8305503 580.36928,52.6322727 C580.169781,52.4338621 579.959831,52.3924601 579.621918,52.3924601 L573.35104,52.3924601 C572.567449,52.3924601 572,51.9497154 572,51.2143197 C572,50.4791012 572.566439,50.0000039 573.35104,50.0000039 L580.163809,50.0000039 C581.726819,49.9973926 583,51.2908735 583,52.8776706 L582.999649,59.6206603 Z M582.999649,69.3792147 C582.999649,68.5859148 582.582998,68.0000039 581.796465,68.0000039 C581.009976,68.0000039 580.638074,68.583477 580.638074,69.3792147 L580.638074,75.598007 C580.638074,75.9344215 580.571369,76.16969 580.371871,76.3681258 C580.172372,76.5663399 579.962246,76.6079153 579.624465,76.6079153 L573.35104,76.6079153 C572.567449,76.6079153 572,77.0506172 572,77.7857649 C572,78.5209125 572.566439,79.0000039 573.35104,79.0000039 L580.163809,79.0000039 C581.726819,79.0000039 583,77.7083762 583,76.1217321 L583,69.3792147 L582.999649,69.3792147 Z" id="Fill-1" transform="translate(565.000000, 64.500002) scale(1, -1) translate(-565.000000, -64.500002) "></path>
        </g>
    </g>
</svg>