<?xml version="1.0" encoding="UTF-8"?>
<svg width="28px" height="41px" viewBox="0 0 28 41" version="1.1" xmlns="http://www.w3.org/2000/svg" xmlns:xlink="http://www.w3.org/1999/xlink">
    <!-- Generator: Sketch 60.1 (88133) - https://sketch.com -->
    <title>Combined Shape</title>
    <desc>Created with Sketch.</desc>
    <defs>
        <path d="M1266.34296,53.4862794 L1277.27374,62.8829978 C1277.73389,63.2833894 1278,63.8702114 1278,64.4941099 C1278,65.1134103 1277.73389,65.7047722 1277.26935,66.1006239 L1268.673,73.491 L1277.26934,80.8830463 C1277.72935,81.2788965 1278,81.8700235 1278,82.4893797 C1278,83.1086777 1277.73397,83.7000957 1277.26934,84.0958877 L1266.3195,93.5157369 C1265.94957,93.8370268 1265.48951,94 1265.02511,94 C1264.73202,94 1264.43894,93.9347525 1264.16367,93.7997176 C1263.45105,93.4552622 1262.99567,92.7147237 1263.00003,91.9046307 L1263.014,77.345 L1253.30084,85.5284327 C1252.92425,85.8459471 1252.46688,86 1252.01389,86 C1251.4354,86 1250.86593,85.7507268 1250.46703,85.2656132 C1249.7539,84.399505 1249.8706,83.1162978 1250.72715,82.3998215 L1261.292,73.5 L1250.72541,64.5982261 C1249.86867,63.8771718 1249.75654,62.5936849 1250.46523,61.7320367 C1251.17828,60.8703317 1252.44753,60.7523008 1253.29968,61.4689332 L1263.004,69.644 L1263.01816,55.0883116 C1263.01816,54.2779827 1263.47391,53.5422143 1264.18669,53.1977576 C1264.8993,52.8531263 1265.73857,52.9649379 1266.34296,53.4862794 Z M1267.06357,77.5537955 L1267.05455,87.4438222 L1272.80903,82.4941525 L1267.06357,77.5537955 Z M1267.06482,59.5537347 L1267.0558,69.443798 L1272.80765,64.4941099 L1267.06482,59.5537347 Z" id="path-1"></path>
    </defs>
    <g id="Page-1" stroke="none" stroke-width="1" fill="none" fill-rule="evenodd">
        <g id="蓝牙已连接--运行" transform="translate(-1250.000000, -53.000000)">
            <mask id="mask-2" fill="white">
                <use xlink:href="#path-1"></use>
            </mask>
            <use id="Combined-Shape" fill="#FFFFFF" transform="translate(1264.000000, 73.500000) scale(1, -1) translate(-1264.000000, -73.500000) " xlink:href="#path-1"></use>
        </g>
    </g>
</svg>