<?xml version="1.0" encoding="UTF-8"?>
<svg width="40px" height="40px" viewBox="0 0 40 40" version="1.1" xmlns="http://www.w3.org/2000/svg" xmlns:xlink="http://www.w3.org/1999/xlink">
    <!-- Generator: Sketch 60.1 (88133) - https://sketch.com -->
    <title>Fill 1</title>
    <desc>Created with Sketch.</desc>
    <g id="最终版" stroke="none" stroke-width="1" fill="none" fill-rule="evenodd">
        <g id="03-main-page-代码列表+滑动效果图（隐藏式）" transform="translate(-1887.000000, -53.000000)" fill="#FFFFFF">
            <g id="Group" transform="translate(1870.000000, 45.000000)">
                <path d="M41.0992248,8.32975601 C26.8387816,5.84352715 14.8300338,17.7776015 17.3318194,31.9494184 C18.8329006,39.6569818 25.0874629,46.1213819 33.0933438,47.613129 C47.103697,50.3480393 59.3627314,38.1652347 56.6107083,24.2420016 C55.3599138,16.2858544 48.8550648,9.82150309 41.0992248,8.32975601 Z M30.2585547,37.1336263 L23.4404436,29.3166045 C22.6829749,28.3395067 22.9353983,26.8738361 23.9454393,26.1409289 C24.9555298,25.4081655 26.4707648,25.4081655 27.2282335,26.3852633 L30.7636,30.7822751 C31.5210191,31.7593728 33.0361053,32.0037552 34.0463447,31.0266574 L47.1771745,20.522437 C48.187265,19.7895297 49.7023016,19.7895297 50.4599687,20.7666274 C51.2175862,21.7439171 51.2175862,23.2095877 50.2073469,23.942351 L33.7937228,37.3780086 C32.5310601,38.3551064 31.0160234,38.110772 30.2585547,37.1336263 Z" id="Fill-1"></path>
            </g>
        </g>
    </g>
</svg>