<?xml version="1.0" encoding="UTF-8"?>
<svg width="32px" height="32px" viewBox="0 0 32 32" version="1.1" xmlns="http://www.w3.org/2000/svg" xmlns:xlink="http://www.w3.org/1999/xlink">
    <!-- Generator: Sketch 60.1 (88133) - https://sketch.com -->
    <title>Slice</title>
    <desc>Created with Sketch.</desc>
    <defs>
        <polygon id="path-1" points="0 0 30 0 30 28 0 28"></polygon>
    </defs>
    <g id="过渡版" stroke="none" stroke-width="1" fill="none" fill-rule="evenodd">
        <g id="04" transform="translate(-627.000000, -583.000000)">
            <g id="Group" transform="translate(618.000000, 574.000000)">
                <g id="delete" transform="translate(9.000000, 9.000000)">
                    <g id="Group-3" transform="translate(1.000000, 2.000000)">
                        <mask id="mask-2" fill="white">
                            <use xlink:href="#path-1"></use>
                        </mask>
                        <g id="Clip-2"></g>
                        <path d="M29.2500463,6.05741858 L24,6.05741858 L24,3.02872962 C24,1.36289376 22.650035,0 21,0 L9,0 C7.34996495,0 5.99995166,1.36289376 5.99995166,3.02872962 L5.99995166,6.05741858 L0.749953674,6.05741858 C0.300070093,6.05741858 0,6.36040134 0,6.81455014 C0,7.26890229 0.300070093,7.57188506 0.749953674,7.57188506 L29.2500463,7.57188506 C29.700091,7.57188506 30,7.26890229 30,6.81455014 C30,6.36040134 29.700091,6.05741858 29.2500463,6.05741858 M25.5001168,10.600574 L18.7499698,10.600574 C19.2000145,10.600574 19.5000846,10.832549 19.5000846,11.1805115 L19.5000846,21.620159 C19.5000846,21.9682028 19.2000145,22.2002591 18.7499698,22.2002591 C18.3000862,22.2002591 18.0000161,21.9682028 18.0000161,21.620159 L18.0000161,11.1805115 C18.0000161,10.832549 18.3000862,10.600574 18.7499698,10.600574 L11.2500302,10.600574 C11.7000346,10.600574 12.0000242,10.832549 12.0000242,11.1805115 L12.0000242,21.620159 C12.0000242,21.9682028 11.7000346,22.2002591 11.2500302,22.2002591 C10.8000258,22.2002591 10.5000765,21.9682028 10.5000765,21.620159 L10.5000765,11.1805115 C10.5000765,10.832549 10.8000258,10.600574 11.2500302,10.600574 L4.50008459,10.600574 C4.05003988,10.600574 3.7499295,10.832549 3.7499295,11.1805115 L3.7499295,25.680128 C3.7499295,26.9560719 5.10006365,28 6.74994562,28 L23.2500544,28 C24.9000975,28 26.2500302,26.9560719 26.2500302,25.680128 L26.2500302,11.1805115 C26.2500302,10.832549 25.9500004,10.600574 25.5001168,10.600574" id="Fill-1" fill="#FFFFFF" mask="url(#mask-2)"></path>
                    </g>
                </g>
            </g>
        </g>
    </g>
</svg>