<?xml version="1.0" encoding="UTF-8"?>
<svg width="32px" height="31px" viewBox="0 0 32 31" version="1.1" xmlns="http://www.w3.org/2000/svg" xmlns:xlink="http://www.w3.org/1999/xlink">
    <!-- Generator: Sketch 60.1 (88133) - https://sketch.com -->
    <title>Fill 1</title>
    <desc>Created with Sketch.</desc>
    <g id="Page-1" stroke="none" stroke-width="1" fill="none" fill-rule="evenodd">
        <g id="蓝牙已连接--运行" transform="translate(-1406.000000, -57.000000)" fill="#FFFFFF">
            <path d="M1433.42846,88 L1410.57132,88 C1408.04684,88 1406,85.8513393 1406,83.2000094 L1406,77.1998215 C1406,76.5371417 1406.51191,76 1407.14266,76 L1409.42866,76 C1410.05977,76 1410.57132,76.5371417 1410.57132,77.1998215 L1410.57132,80.7999906 C1410.57132,82.125679 1411.59447,83.2000094 1412.857,83.2000094 L1431.14282,83.2000094 C1432.40531,83.2000094 1433.42846,82.125679 1433.42846,80.7999906 L1433.42846,77.1998215 C1433.42846,76.5371417 1433.94023,76 1434.57148,76 L1436.85734,76 C1437.48822,76 1438,76.5371417 1438,77.1998215 L1438,83.2000094 C1438,85.8513393 1435.95352,88 1433.42846,88 Z M1413.05552,64.8176543 C1413.52547,64.3239067 1414.28793,64.3239067 1414.75807,64.8176543 L1420.17676,70.5106558 L1420.17676,58.2209457 C1420.17676,57.546963 1420.69696,57 1421.33833,57 L1423.66179,57 C1424.30335,57 1424.82373,57.546963 1424.82373,58.2209457 L1424.82373,70.5106558 L1430.24242,64.8176543 C1430.71256,64.3239067 1431.47465,64.3239067 1431.94461,64.8176543 L1433.64757,66.6067728 C1434.11748,67.1007114 1434.11748,67.9013793 1433.64757,68.3955091 L1424.05218,78.4765872 C1424.01081,78.5201054 1423.26413,78.9996654 1422.51304,79 C1421.75377,79.0003819 1420.98968,78.5206309 1420.94813,78.4765872 L1411.3526,68.3955091 C1410.88247,67.901236 1410.88247,67.1007114 1411.3526,66.6067728 L1413.05552,64.8176543 Z" id="Fill-1"></path>
        </g>
    </g>
</svg>