<?xml version="1.0" encoding="UTF-8"?>
<svg width="32px" height="32px" viewBox="0 0 32 32" version="1.1" xmlns="http://www.w3.org/2000/svg" xmlns:xlink="http://www.w3.org/1999/xlink">
    <!-- Generator: Sketch 60.1 (88133) - https://sketch.com -->
    <title>edit</title>
    <desc>Created with Sketch.</desc>
    <defs>
        <polygon id="path-1" points="0.0638910105 0.0583414634 23.9454312 0.0583414634 23.9454312 23.9431632 0.0638910105 23.9431632"></polygon>
    </defs>
    <g id="edit" stroke="none" stroke-width="1" fill="none" fill-rule="evenodd">
        <g id="Group-6" transform="translate(1.000000, 1.000000)">
            <path d="M4.37059945,30 C4.67441553,30 4.9785649,29.9679909 5.27718185,29.903906 L11.1374062,28.6500822 C11.2921138,28.5487866 11.5108107,28.4047456 11.6706508,28.3034501 C12.2414224,27.4711464 12.6520207,26.5268774 12.854587,25.5078538 C13.3289747,23.10717 12.6306909,20.7599015 10.9348399,19.0635516 C9.23905558,17.3721365 6.89284619,16.6735375 4.49324569,17.1429379 C3.67744818,17.3028501 2.90964268,17.6016686 2.2055599,18.0072508 C1.75770112,18.2633237 1.43255526,18.6952467 1.3205739,19.1969229 C0.9471694,20.8398576 0.0939781107,24.7182289 0.0939781107,24.7182289 C-0.20990463,26.169509 0.232755006,27.6686026 1.28304681,28.7142338 C2.11497498,29.5516723 3.22412365,30 4.37059945,30" id="Fill-1" fill="#FFFFFF"></path>
            <g id="Group-5" transform="translate(6.000000, 0.000000)">
                <mask id="mask-2" fill="white">
                    <use xlink:href="#path-1"></use>
                </mask>
                <g id="Clip-4"></g>
                <path d="M11.6638244,4.57086179 C12.1737431,4.06094309 13.0009951,4.06094309 13.5108488,4.57086179 L19.3124748,10.3724228 C19.8223935,10.8826016 19.8223935,11.7098537 19.3124748,12.2197073 C19.0576455,12.4745366 18.7245724,12.6046179 18.386361,12.6046179 C18.0532878,12.6046179 17.7151415,12.4745366 17.460052,12.2197073 L11.6638244,6.41814634 C11.1539057,5.90822764 11.1539057,5.08078049 11.6638244,4.57086179 M0.508052033,14.0617236 C3.00548293,14.0772033 5.40418211,15.0398699 7.18369431,16.8193171 C8.96333659,18.5988293 9.93107642,20.9976585 9.94154797,23.4951545 C9.94154797,23.8907317 10.4148488,24.0934634 10.6958244,23.8124878 L22.9442797,11.5639675 C23.693548,10.8147642 24.0527675,9.77944715 23.9173528,8.7075122 C23.8185561,7.92169106 23.4074992,7.19863415 22.8508163,6.63668293 L17.2728,1.0535935 C15.9461008,-0.273430894 13.7710114,-0.273430894 12.4443122,1.0535935 L0.195856911,13.307122 C-0.0851837398,13.5881626 0.112474797,14.0563902 0.508052033,14.0617236" id="Fill-3" fill="#FFFFFF" mask="url(#mask-2)"></path>
            </g>
        </g>
    </g>
</svg>