<?xml version="1.0" encoding="UTF-8"?>
<svg width="44px" height="44px" viewBox="0 0 44 44" version="1.1" xmlns="http://www.w3.org/2000/svg" xmlns:xlink="http://www.w3.org/1999/xlink">
    <!-- Generator: Sketch 60.1 (88133) - https://sketch.com -->
    <title>Fill 5</title>
    <desc>Created with Sketch.</desc>
    <g id="最终版" stroke="none" stroke-width="1" fill="none" fill-rule="evenodd">
        <g id="14学生模式" transform="translate(-1786.000000, -1290.000000)" fill="#FFFFFF">
            <g id="Group-18" transform="translate(1762.000000, 1184.000000)">
                <g id="Fill-5" transform="translate(24.000000, 106.000000)">
                    <path d="M2.47887324,23.7339012 C3.84240845,23.7339012 4.95774648,24.866627 4.95774648,26.2514192 L4.95774648,26.2514192 L4.95774648,38.9649639 L39.0422535,38.9649639 L39.0422535,26.3773738 C39.0422535,24.9926602 40.1575915,23.8598558 41.5211268,23.8598558 C42.884662,23.8598558 44,24.9926602 44,26.3773738 L44,26.3773738 L44,41.482482 C44,42.8669595 42.884662,44 41.5211268,44 L41.5211268,44 L2.47887324,44 C1.11533803,44 0,42.8669595 0,41.482482 L0,41.482482 L0,26.2514192 C0,24.866627 1.11533803,23.7339012 2.47887324,23.7339012 Z M22.0371831,0 C22.7438169,0 23.3883239,0.295965713 23.8467606,0.768000343 L23.8467606,0.768000343 L23.8531127,0.761549203 L38.6643028,15.8036407 L38.6455563,15.8226795 C39.0482958,16.2756754 39.2900634,16.8798797 39.2900634,17.5408855 C39.2900634,18.969577 38.1498592,20.1275566 36.7430986,20.1275566 L36.7430986,20.1275566 L28.804507,20.1275566 L28.804507,29.9646797 C28.804507,32.381733 26.8709085,34.345161 24.4912676,34.345161 L24.4912676,34.345161 L19.5335211,34.345161 C17.1538803,34.345161 15.2202817,32.381733 15.2202817,29.9646797 L15.2202817,29.9646797 L15.2202817,20.1275566 L7.25690141,20.1275566 C5.85014085,20.1275566 4.71597887,18.969577 4.71597887,17.5408855 C4.71597887,16.6472453 5.16233099,15.8605209 5.83766901,15.3946227 L5.83766901,15.3946227 L20.0727535,0.93793281 C20.5375423,0.365118786 21.2437887,0 22.0371831,0 Z" id="Combined-Shape"></path>
                </g>
            </g>
        </g>
    </g>
</svg>