<?xml version="1.0" encoding="UTF-8"?>
<svg width="44px" height="44px" viewBox="0 0 44 44" version="1.1" xmlns="http://www.w3.org/2000/svg" xmlns:xlink="http://www.w3.org/1999/xlink">
    <!-- Generator: Sketch 60.1 (88133) - https://sketch.com -->
    <title>folder</title>
    <desc>Created with Sketch.</desc>
    <defs>
        <polygon id="path-1" points="0.00778408522 0.0417391304 43.9800815 0.0417391304 43.9800815 39.933287 0.00778408522 39.933287"></polygon>
    </defs>
    <g id="folder" stroke="none" stroke-width="1" fill="none" fill-rule="evenodd">
        <g id="Group-5" transform="translate(0.000000, 2.000000)">
            <g id="Group-3">
                <mask id="mask-2" fill="white">
                    <use xlink:href="#path-1"></use>
                </mask>
                <g id="Clip-2"></g>
                <path d="M35.2359007,34.5849739 L8.73887462,34.5849739 C6.66843769,34.5849739 4.98188589,32.7762783 4.98188589,30.5558957 L4.98188589,25.8365913 L38.9878298,25.8365913 L38.9878298,30.5558957 C38.9878298,32.7762783 37.3065971,34.5849739 35.2359007,34.5849739 M41.4839913,8.74010435 L19.5121783,8.74010435 L15.0699955,1.27735652 C14.613394,0.509147826 13.8192876,0.0417391304 12.9684222,0.0417391304 L8.74419375,0.0417391304 C3.92318544,0.0417391304 6.48673769e-06,4.24904348 6.48673769e-06,9.4192 L6.48673769e-06,30.5558957 C6.48673769e-06,35.7259826 3.92318544,39.933287 8.74419375,39.933287 L35.2359007,39.933287 C40.056909,39.933287 43.980088,35.7259826 43.980088,30.5558957 L43.980088,11.4170435 C43.980088,9.93655652 42.864434,8.74010435 41.4839913,8.74010435" id="Fill-1" fill="#FFFFFF" mask="url(#mask-2)"></path>
            </g>
            <polygon id="Fill-4" fill="#FFFFFF" points="39 7 39 1 19 1 22.6287445 7"></polygon>
        </g>
    </g>
</svg>