<?xml version="1.0" encoding="UTF-8"?>
<svg width="36px" height="36px" viewBox="0 0 36 36" version="1.1" xmlns="http://www.w3.org/2000/svg" xmlns:xlink="http://www.w3.org/1999/xlink">
    <!-- Generator: Sketch 60.1 (88133) - https://sketch.com -->
    <title>full screen</title>
    <desc>Created with Sketch.</desc>
    <defs>
        <polygon id="path-1" points="0 0 36 0 36 36 0 36"></polygon>
    </defs>
    <g id="full-screen" stroke="none" stroke-width="1" fill="none" fill-rule="evenodd">
        <g>
            <mask id="mask-2" fill="white">
                <use xlink:href="#path-1"></use>
            </mask>
            <g id="Clip-2"></g>
            <path d="M30.7894686,29.3683086 C30.7894686,29.5511021 30.7514999,29.7254581 30.6890515,29.8865474 L30.6823348,29.9082517 C30.537732,30.2586291 30.2595172,30.5368438 29.9093064,30.6813911 L29.8874355,30.6879413 C29.7224051,30.7541089 29.5461617,30.7883584 29.3683086,30.7894686 L21.7895102,30.7894686 C21.0046027,30.7894686 20.3684057,30.1532716 20.3684057,29.3683086 C20.3684057,28.5835121 21.0046027,27.9471486 21.7895102,27.9471486 L25.9380296,27.9471486 L21.2589482,23.2682338 C20.88942,22.9114173 20.7413201,22.3831867 20.8714348,21.8862081 C21.0013276,21.3894516 21.3894516,21.0013276 21.8862081,20.8714348 C22.3831867,20.7413201 22.9114173,20.88942 23.2683448,21.2588372 L27.9472041,25.9379185 L27.9472041,21.7895102 C27.9472041,21.0044917 28.5836231,20.3682947 29.3683086,20.3682947 C30.1532716,20.3682947 30.7894686,21.0044917 30.7894686,21.7895102 L30.7894686,29.3683086 Z M14.2104898,8.05257388 L10.062026,8.05257388 L14.7411073,12.7315997 C15.1001442,13.0905256 15.2404728,13.6137602 15.1092478,14.1042442 C14.9778562,14.5946726 14.5949502,14.9778562 14.1044662,15.1094143 C13.6139823,15.2408613 13.0907476,15.1008103 12.7316552,14.7419399 L8.05257388,10.0619704 L8.05257388,14.2104898 C8.05257388,14.9951198 7.41637691,15.6315943 6.63146939,15.6315943 C5.8467284,15.6315943 5.21053143,14.9951198 5.21053143,14.2104898 L5.21053143,6.63141388 C5.21053143,6.4477322 5.24850008,6.27431981 5.31178117,6.11334161 L5.31849785,6.09235893 C5.46249007,5.74192603 5.74198154,5.46332272 6.09241444,5.31849785 L6.11428527,5.31172566 C6.27431981,5.24838906 6.44778771,5.21053143 6.63146939,5.21053143 L14.2104898,5.21053143 C14.9952308,5.21053143 15.6316498,5.8467284 15.6316498,6.63141388 C15.6316498,7.41637691 14.9952308,8.05257388 14.2104898,8.05257388 L14.2104898,8.05257388 Z M30.3156931,0 L5.6840849,0 C2.54500991,0 0,2.5449544 0,5.6840849 L0,30.315582 C0,33.4549901 2.54500991,36 5.6840849,36 L30.3156931,36 C33.4550456,36 36,33.4549901 36,30.315582 L36,5.6840849 C36,2.5449544 33.4550456,0 30.3156931,0 L30.3156931,0 Z" id="Fill-1" fill="#FFFFFF" mask="url(#mask-2)"></path>
        </g>
    </g>
</svg>