<?xml version="1.0" encoding="UTF-8"?>
<svg width="56px" height="56px" viewBox="0 0 56 56" version="1.1" xmlns="http://www.w3.org/2000/svg" xmlns:xlink="http://www.w3.org/1999/xlink">
    <!-- Generator: Sketch 60.1 (88133) - https://sketch.com -->
    <title>graft-draw</title>
    <desc>Created with Sketch.</desc>
    <defs>
        <polygon id="path-1" points="1.79671227e-16 0 56 0 56 56 1.79671227e-16 56"></polygon>
        <linearGradient x1="50%" y1="0%" x2="50%" y2="100%" id="linearGradient-3">
            <stop stop-color="#61E4FF" offset="0%"></stop>
            <stop stop-color="#32C5FF" offset="100%"></stop>
        </linearGradient>
        <linearGradient x1="50%" y1="0%" x2="50%" y2="100%" id="linearGradient-4">
            <stop stop-color="#61E4FF" offset="0%"></stop>
            <stop stop-color="#32C5FF" offset="100%"></stop>
        </linearGradient>
        <linearGradient x1="50%" y1="0%" x2="50%" y2="100%" id="linearGradient-5">
            <stop stop-color="#61E4FF" offset="0%"></stop>
            <stop stop-color="#32C5FF" offset="100%"></stop>
        </linearGradient>
    </defs>
    <g id="graft-draw" stroke="none" stroke-width="1" fill="none" fill-rule="evenodd">
        <g id="Group">
            <mask id="mask-2" fill="white">
                <use xlink:href="#path-1"></use>
            </mask>
            <g id="Clip-2"></g>
            <path d="M5.19088635,5.468634 L0,5.468634 C0,8.48921312 2.32397562,10.9376035 5.19088635,10.9376035 C8.05755821,10.9376035 10.3815338,8.48921312 10.3815338,5.468634 C10.3815338,2.44839043 8.05755821,0 5.19088635,0 C2.32397562,0 0,2.44839043 0,5.468634 L5.19088635,5.468634 Z M0,50.5319532 C0,53.5509385 2.32397562,56 5.19088635,56 C8.05755821,56 10.3815338,53.5509385 10.3815338,50.5319532 C10.3815338,47.5107869 8.05755821,45.0629837 5.19088635,45.0629837 C2.32397562,45.0629837 0,47.5107869 0,50.5319532 Z M42.7716455,5.468634 C42.7716455,8.48921312 45.0949842,10.9376035 47.9626115,10.9376035 C50.8292833,10.9376035 53.1525424,8.48921312 53.1525424,5.468634 C53.1525424,2.44839043 50.8292833,0 47.9626115,0 C45.0949842,0 42.7716455,2.44839043 42.7716455,5.468634 Z" id="Fill-1" fill="url(#linearGradient-3)" mask="url(#mask-2)"></path>
            <path d="M4.74576271,8.41077141 L47.4576271,8.41077141 L47.4576271,3 L4.74576271,3 L4.74576271,8.41077141 Z M4.74576271,53 L22.3903507,53 L22.3903507,47.5883156 L4.74576271,47.5883156 L4.74576271,53 Z" id="Fill-3" fill="url(#linearGradient-4)" mask="url(#mask-2)"></path>
            <path d="M1.89830508,50.5867099 L7.10925415,50.5867099 L7.10925415,6.00132795 L1.89830508,6.00132795 L1.89830508,50.5867099 Z M50.0494856,6.00132795 L50.0494856,24.7125063 L44.837897,24.7125063 L44.837897,6 L50.0494856,6.00132795 Z M45.307187,29.243293 L52.6507636,36.8686097 L37.5764122,52.5284164 L30.2316366,44.9021038 L45.307187,29.243293 Z M53.3470649,36.1456259 L46.0022093,28.5232142 L48.0024669,26.4457252 C48.8673481,25.5480335 50.2702621,25.5480335 51.1345038,26.4457252 L51.135463,26.4457252 L55.3516388,30.8234661 C56.2156407,31.7218218 56.2165999,33.1781639 55.3516388,34.0762706 L53.3514612,36.1530956 L53.3470649,36.1456259 Z M26.9740241,56 L36.8792317,53.2406936 L29.6258201,45.7084162 L26.9740241,56 Z" id="Fill-4" fill="url(#linearGradient-5)" mask="url(#mask-2)"></path>
        </g>
    </g>
</svg>