<?xml version="1.0" encoding="UTF-8"?>
<svg width="36px" height="36px" viewBox="0 0 36 36" version="1.1" xmlns="http://www.w3.org/2000/svg" xmlns:xlink="http://www.w3.org/1999/xlink">
    <!-- Generator: Sketch 60.1 (88133) - https://sketch.com -->
    <title>gridding</title>
    <desc>Created with Sketch.</desc>
    <g id="gridding" stroke="none" stroke-width="1" fill="none" fill-rule="evenodd">
        <path d="M5.14274952,28.2856246 L5.14274952,23.1428751 L1.28581294,23.1428751 C0.575607456,23.1428751 0,22.5672676 0,21.8570621 C0,21.1471078 0.575607456,20.5715003 1.28581294,20.5715003 L5.14274952,20.5715003 L5.14274952,15.4284997 L1.28581294,15.4284997 C0.575607456,15.4284997 0,14.8528922 0,14.1429379 C0,13.4327324 0.575607456,12.8571249 1.28581294,12.8571249 L5.14274952,12.8571249 L5.14274952,7.7143754 L1.28581294,7.7143754 C0.575607456,7.7143754 0,7.13856705 0,6.42856246 C0,5.71855787 0.575607456,5.14274952 1.28581294,5.14274952 L5.14274952,5.14274952 L5.14274952,1.28581294 C5.14274952,0.575607456 5.71855787,0 6.42856246,0 C7.13856705,0 7.7143754,0.575607456 7.7143754,1.28581294 L7.7143754,5.14274952 L12.8571249,5.14274952 L12.8571249,1.28581294 C12.8571249,0.575607456 13.4327324,0 14.1429379,0 C14.8528922,0 15.4284997,0.575607456 15.4284997,1.28581294 L15.4284997,5.14274952 L20.5715003,5.14274952 L20.5715003,1.28581294 C20.5715003,0.575607456 21.1470576,0 21.8570621,0 C22.5672676,0 23.1428751,0.575607456 23.1428751,1.28581294 L23.1428751,5.14274952 L28.2856246,5.14274952 L28.2856246,1.28581294 C28.2856246,0.575607456 28.8612321,0 29.5714375,0 C30.2814421,0 30.8569994,0.575607456 30.8569994,1.28581294 L30.8569994,5.14274952 L34.7141871,5.14274952 C35.4243925,5.14274952 36,5.71855787 36,6.42856246 C36,7.13856705 35.4243925,7.7143754 34.7141871,7.7143754 L30.8569994,7.7143754 L30.8569994,12.8571249 L34.7141871,12.8571249 C35.4243925,12.8571249 36,13.4327324 36,14.1429379 C36,14.8528922 35.4243925,15.4284997 34.7141871,15.4284997 L30.8569994,15.4284997 L30.8569994,20.5715003 L34.7141871,20.5715003 C35.4243925,20.5715003 36,21.1471078 36,21.8570621 C36,22.5672676 35.4243925,23.1428751 34.7141871,23.1428751 L30.8569994,23.1428751 L30.8569994,28.2856246 L34.7141871,28.2856246 C35.4243925,28.2856246 36,28.8612321 36,29.5714375 C36,30.2814421 35.4243925,30.8569994 34.7141871,30.8569994 L30.8569994,30.8569994 L30.8569994,34.7141871 C30.8569994,35.4243925 30.2814421,36 29.5714375,36 C28.8612321,36 28.2856246,35.4243925 28.2856246,34.7141871 L28.2856246,30.8569994 L23.1428751,30.8569994 L23.1428751,34.7141871 C23.1428751,35.4243925 22.5672676,36 21.8570621,36 C21.1470576,36 20.5715003,35.4243925 20.5715003,34.7141871 L20.5715003,30.8569994 L15.4284997,30.8569994 L15.4284997,34.7141871 C15.4284997,35.4243925 14.8528922,36 14.1429379,36 C13.4327324,36 12.8571249,35.4243925 12.8571249,34.7141871 L12.8571249,30.8569994 L7.7143754,30.8569994 L7.7143754,34.7141871 C7.7143754,35.4243925 7.13856705,36 6.42856246,36 C5.71855787,36 5.14274952,35.4243925 5.14274952,34.7141871 L5.14274952,30.8569994 L1.28581294,30.8569994 C0.575607456,30.8569994 0,30.2814421 0,29.5714375 C0,28.8612321 0.575607456,28.2856246 1.28581294,28.2856246 L5.14274952,28.2856246 Z M7,29 L13,29 L13,23 L7,23 L7,29 Z M15,29 L21,29 L21,23 L15,23 L15,29 Z M23,29 L29,29 L29,23 L23,23 L23,29 Z M23,21 L29,21 L29,15 L23,15 L23,21 Z M15,21 L21,21 L21,15 L15,15 L15,21 Z M7,21 L13,21 L13,15 L7,15 L7,21 Z M7,13 L13,13 L13,7 L7,7 L7,13 Z M15,13 L21,13 L21,7 L15,7 L15,13 Z M23,13 L29,13 L29,7 L23,7 L23,13 Z" id="Fill-1" fill="#FFFFFF"></path>
    </g>
</svg>