<?xml version="1.0" encoding="UTF-8"?>
<svg width="177px" height="187px" viewBox="0 0 177 187" version="1.1" xmlns="http://www.w3.org/2000/svg" xmlns:xlink="http://www.w3.org/1999/xlink">
    <!-- Generator: Sketch 60.1 (88133) - https://sketch.com -->
    <title>Group 21</title>
    <desc>Created with Sketch.</desc>
    <defs>
        <filter x="-36.5%" y="-59.7%" width="174.2%" height="223.3%" filterUnits="objectBoundingBox" id="filter-1">
            <feOffset dx="0" dy="1" in="SourceAlpha" result="shadowOffsetOuter1"></feOffset>
            <feGaussianBlur stdDeviation="15" in="shadowOffsetOuter1" result="shadowBlurOuter1"></feGaussianBlur>
            <feColorMatrix values="0 0 0 0 0   0 0 0 0 0.568627451   0 0 0 0 1  0 0 0 0.643274694 0" type="matrix" in="shadowBlurOuter1" result="shadowMatrixOuter1"></feColorMatrix>
            <feMerge>
                <feMergeNode in="shadowMatrixOuter1"></feMergeNode>
                <feMergeNode in="SourceGraphic"></feMergeNode>
            </feMerge>
        </filter>
        <path d="M64.5391737,97.3893198 C65.6291995,96.2891601 69.7385223,90.245285 68.6887098,86.67638 C69.8907922,86.7227557 73.6015473,86.3383977 75.7539934,82.501352 C77.9064395,78.6643063 77.6780653,78.0456822 77.6780653,76.0228014 C77.6780653,73.9989295 77.5797781,72.4614524 76.4479659,70.7113781 C79.7427086,71.1588064 83.2323332,71.603871 86.5967753,63.6777422 C87.1448598,62.3865359 86.7854549,57.7172378 86.1565754,56.0486833 L107.862504,49.345376 C116.071343,46.9969465 119.120714,47.6784438 122.96081,43.0217812 C126.800907,38.3651186 125.964318,35.5148456 125.563234,32.5008174 C125.162149,29.4867892 124.126946,27.5586537 121.673831,25.453262 C119.221571,23.347127 116.423385,22.2950506 113.278987,22.2950506 C104.117122,23.1737027 96.5582596,24.0836556 90.6023999,25.0249093 C83.6147719,26.1292219 71.7584028,28.2876185 55.0332926,31.5000991 C55.0332926,30.4063956 55.505451,29.0805216 56.4480579,27.5212383 C57.3920896,25.9629462 58.4292991,24.4586702 59.5613963,23.0098971 C60.6934934,21.5608762 61.7318428,19.7015306 62.6747347,17.4318603 C63.6173416,15.1621901 64.0894999,12.8518838 64.0894999,10.4997027 C64.0894999,6.83527546 62.6904068,4.16989961 59.8919356,2.50208844 C57.0937493,0.83452504 53.4618062,-1.36424205e-12 48.9961061,-1.36424205e-12 C47.4867382,-1.36424205e-12 44.6560679,3.80095431 40.50552,11.4018718 C38.9961521,13.8080692 37.8329957,15.5861427 37.0149109,16.7341102 C34.4993927,20.2340111 30.9777243,24.1994917 26.4496207,28.6285698 C21.9850604,33.0583913 18.8084636,35.9574242 16.9215401,37.3239342 C12.5829266,40.4415096 8.18076988,41.9998018 3.7150698,41.9998018 L0.696334044,41.9998018 C6.45917093,45.9565484 9.34058937,54.9349217 9.34058937,68.9349217 C9.34058937,82.9349217 6.45917093,91.4563832 0.696334044,94.4993062 L3.7150698,94.4993062 C8.24288848,94.4993062 13.3827767,93.036857 19.1495045,94.3999187 C24.9162323,95.7629804 24.9162323,95.7629804 33.1113026,98.1605254 C41.3063729,100.558071 43.3408798,101.431216 50.5261109,102.210311 C56.4172263,102.178576 60.3611271,101.606209 64.5391737,97.3893198 Z" id="path-2"></path>
        <filter x="-17.6%" y="-15.7%" width="130.4%" height="131.3%" filterUnits="objectBoundingBox" id="filter-4">
            <feGaussianBlur stdDeviation="8" in="SourceAlpha" result="shadowBlurInner1"></feGaussianBlur>
            <feOffset dx="12" dy="-2" in="shadowBlurInner1" result="shadowOffsetInner1"></feOffset>
            <feComposite in="shadowOffsetInner1" in2="SourceAlpha" operator="arithmetic" k2="-1" k3="1" result="shadowInnerInner1"></feComposite>
            <feColorMatrix values="0 0 0 0 1   0 0 0 0 1   0 0 0 0 1  0 0 0 1 0" type="matrix" in="shadowInnerInner1"></feColorMatrix>
        </filter>
        <filter x="-40.4%" y="-74.8%" width="180.9%" height="249.5%" filterUnits="objectBoundingBox" id="filter-5">
            <feGaussianBlur stdDeviation="10" in="SourceGraphic"></feGaussianBlur>
        </filter>
        <filter x="-34.5%" y="-61.1%" width="169.0%" height="222.3%" filterUnits="objectBoundingBox" id="filter-6">
            <feGaussianBlur stdDeviation="10" in="SourceGraphic"></feGaussianBlur>
        </filter>
        <filter x="-19.6%" y="-36.0%" width="139.1%" height="172.1%" filterUnits="objectBoundingBox" id="filter-7">
            <feGaussianBlur stdDeviation="3" in="SourceGraphic"></feGaussianBlur>
        </filter>
        <filter x="-13.6%" y="-54.4%" width="127.2%" height="208.8%" filterUnits="objectBoundingBox" id="filter-8">
            <feGaussianBlur stdDeviation="1" in="SourceGraphic"></feGaussianBlur>
        </filter>
        <ellipse id="path-9" cx="33.2158133" cy="68.0580687" rx="26.5" ry="10.5"></ellipse>
        <filter x="-34.9%" y="-88.1%" width="169.8%" height="276.2%" filterUnits="objectBoundingBox" id="filter-10">
            <feMorphology radius="2" operator="dilate" in="SourceAlpha" result="shadowSpreadOuter1"></feMorphology>
            <feOffset dx="0" dy="0" in="shadowSpreadOuter1" result="shadowOffsetOuter1"></feOffset>
            <feGaussianBlur stdDeviation="5.5" in="shadowOffsetOuter1" result="shadowBlurOuter1"></feGaussianBlur>
            <feComposite in="shadowBlurOuter1" in2="SourceAlpha" operator="out" result="shadowBlurOuter1"></feComposite>
            <feColorMatrix values="0 0 0 0 1   0 0 0 0 1   0 0 0 0 1  0 0 0 1 0" type="matrix" in="shadowBlurOuter1"></feColorMatrix>
        </filter>
        <linearGradient x1="17.4373737%" y1="13.0116337%" x2="66.4258394%" y2="73.9333202%" id="linearGradient-11">
            <stop stop-color="#00FFFC" stop-opacity="0" offset="0%"></stop>
            <stop stop-color="#00FFFC" offset="31.4744286%"></stop>
            <stop stop-color="#00FFFC" stop-opacity="0.268493226" offset="59.1278093%"></stop>
            <stop stop-color="#00FFFC" stop-opacity="0" offset="100%"></stop>
        </linearGradient>
        <filter x="-10.9%" y="-11.5%" width="121.8%" height="123.1%" filterUnits="objectBoundingBox" id="filter-12">
            <feGaussianBlur stdDeviation="2" in="SourceGraphic"></feGaussianBlur>
        </filter>
        <rect id="path-13" x="0" y="33" width="4" height="4" rx="2"></rect>
        <filter x="-262.5%" y="-262.5%" width="625.0%" height="625.0%" filterUnits="objectBoundingBox" id="filter-14">
            <feOffset dx="0" dy="0" in="SourceAlpha" result="shadowOffsetOuter1"></feOffset>
            <feGaussianBlur stdDeviation="3.5" in="shadowOffsetOuter1" result="shadowBlurOuter1"></feGaussianBlur>
            <feColorMatrix values="0 0 0 0 1   0 0 0 0 1   0 0 0 0 1  0 0 0 1 0" type="matrix" in="shadowBlurOuter1"></feColorMatrix>
        </filter>
        <rect id="path-15" x="4" y="11" width="3" height="3"></rect>
        <filter x="-300.0%" y="-300.0%" width="700.0%" height="700.0%" filterUnits="objectBoundingBox" id="filter-16">
            <feOffset dx="0" dy="0" in="SourceAlpha" result="shadowOffsetOuter1"></feOffset>
            <feGaussianBlur stdDeviation="3" in="shadowOffsetOuter1" result="shadowBlurOuter1"></feGaussianBlur>
            <feColorMatrix values="0 0 0 0 1   0 0 0 0 1   0 0 0 0 1  0 0 0 1 0" type="matrix" in="shadowBlurOuter1"></feColorMatrix>
        </filter>
        <rect id="path-17" x="10" y="17" width="2" height="2"></rect>
        <filter x="-450.0%" y="-450.0%" width="1000.0%" height="1000.0%" filterUnits="objectBoundingBox" id="filter-18">
            <feOffset dx="0" dy="0" in="SourceAlpha" result="shadowOffsetOuter1"></feOffset>
            <feGaussianBlur stdDeviation="3" in="shadowOffsetOuter1" result="shadowBlurOuter1"></feGaussianBlur>
            <feColorMatrix values="0 0 0 0 1   0 0 0 0 1   0 0 0 0 1  0 0 0 1 0" type="matrix" in="shadowBlurOuter1"></feColorMatrix>
        </filter>
        <rect id="path-19" x="11" y="27" width="2" height="2"></rect>
        <filter x="-450.0%" y="-450.0%" width="1000.0%" height="1000.0%" filterUnits="objectBoundingBox" id="filter-20">
            <feOffset dx="0" dy="0" in="SourceAlpha" result="shadowOffsetOuter1"></feOffset>
            <feGaussianBlur stdDeviation="3" in="shadowOffsetOuter1" result="shadowBlurOuter1"></feGaussianBlur>
            <feColorMatrix values="0 0 0 0 1   0 0 0 0 1   0 0 0 0 1  0 0 0 1 0" type="matrix" in="shadowBlurOuter1"></feColorMatrix>
        </filter>
        <rect id="path-21" x="21" y="0" width="2" height="2"></rect>
        <filter x="-300.0%" y="-300.0%" width="700.0%" height="700.0%" filterUnits="objectBoundingBox" id="filter-22">
            <feOffset dx="0" dy="0" in="SourceAlpha" result="shadowOffsetOuter1"></feOffset>
            <feGaussianBlur stdDeviation="2" in="shadowOffsetOuter1" result="shadowBlurOuter1"></feGaussianBlur>
            <feColorMatrix values="0 0 0 0 1   0 0 0 0 1   0 0 0 0 1  0 0 0 1 0" type="matrix" in="shadowBlurOuter1"></feColorMatrix>
        </filter>
        <rect id="path-23" x="12" y="18" width="5" height="5"></rect>
        <filter x="-210.0%" y="-210.0%" width="520.0%" height="520.0%" filterUnits="objectBoundingBox" id="filter-24">
            <feOffset dx="0" dy="0" in="SourceAlpha" result="shadowOffsetOuter1"></feOffset>
            <feGaussianBlur stdDeviation="3.5" in="shadowOffsetOuter1" result="shadowBlurOuter1"></feGaussianBlur>
            <feColorMatrix values="0 0 0 0 1   0 0 0 0 1   0 0 0 0 1  0 0 0 1 0" type="matrix" in="shadowBlurOuter1"></feColorMatrix>
        </filter>
        <rect id="path-25" x="20" y="14" width="5" height="5"></rect>
        <filter x="-210.0%" y="-210.0%" width="520.0%" height="520.0%" filterUnits="objectBoundingBox" id="filter-26">
            <feOffset dx="0" dy="0" in="SourceAlpha" result="shadowOffsetOuter1"></feOffset>
            <feGaussianBlur stdDeviation="3.5" in="shadowOffsetOuter1" result="shadowBlurOuter1"></feGaussianBlur>
            <feColorMatrix values="0 0 0 0 1   0 0 0 0 1   0 0 0 0 1  0 0 0 1 0" type="matrix" in="shadowBlurOuter1"></feColorMatrix>
        </filter>
        <rect id="path-27" x="9" y="11" width="4" height="4"></rect>
        <filter x="-262.5%" y="-262.5%" width="625.0%" height="625.0%" filterUnits="objectBoundingBox" id="filter-28">
            <feOffset dx="0" dy="0" in="SourceAlpha" result="shadowOffsetOuter1"></feOffset>
            <feGaussianBlur stdDeviation="3.5" in="shadowOffsetOuter1" result="shadowBlurOuter1"></feGaussianBlur>
            <feColorMatrix values="0 0 0 0 1   0 0 0 0 1   0 0 0 0 1  0 0 0 1 0" type="matrix" in="shadowBlurOuter1"></feColorMatrix>
        </filter>
    </defs>
    <g id="过渡版" stroke="none" stroke-width="1" fill="none" fill-rule="evenodd">
        <g id="01" transform="translate(-1737.000000, -136.000000)">
            <g id="Group-21" transform="translate(1828.500000, 234.500000) scale(-1, 1) translate(-1828.500000, -234.500000) translate(1749.000000, 139.000000)">
                <g id="Group-5" filter="url(#filter-1)" transform="translate(79.500000, 95.500000) scale(-1, -1) rotate(67.000000) translate(-79.500000, -95.500000) translate(-2.000000, 44.000000)">
                    <g id="Oval" transform="translate(36.553666, -0.000000)">
                        <mask id="mask-3" fill="white">
                            <use xlink:href="#path-2"></use>
                        </mask>
                        <g id="Mask">
                            <use fill="#FFFFFF" fill-rule="evenodd" xlink:href="#path-2"></use>
                            <use fill="black" fill-opacity="1" filter="url(#filter-4)" xlink:href="#path-2"></use>
                            <path stroke="#FFFFFF" stroke-width="2" d="M56.252668,30.2478933 C72.2470545,27.1823069 83.6428769,25.1123692 90.446299,24.0371682 C96.4247479,23.0923445 104.00293,22.1800659 113.278987,21.2950506 C116.664847,21.2950506 119.69357,22.4343127 122.325108,24.6944216 C124.942005,26.9403799 126.117121,29.0821716 126.554495,32.3689076 C126.581711,32.5734256 126.606383,32.7463986 126.658841,33.1056169 C126.660202,33.1149316 126.660202,33.1149316 126.661563,33.1242513 C127.300271,37.4977412 126.863514,39.8609809 123.732318,43.6580015 C123.196278,44.3080257 122.666927,44.8687505 122.129404,45.3559962 C120.291723,47.0217878 118.542392,47.7806864 115.264243,48.5616493 C114.725442,48.6900094 112.570412,49.1766234 112.076212,49.2919835 C110.673807,49.6193444 109.44221,49.9335628 108.157577,50.3008506 L87.3867552,56.7153748 C87.9095844,59.014859 88.0635642,62.7815086 87.5172801,64.0684733 C84.8899754,70.2580155 82.4188501,72.0390463 78.1520455,71.8716075 C78.5577194,72.997101 78.6780653,74.2246197 78.6780653,76.0228014 C78.6780653,76.1669363 78.679022,76.2887517 78.6815036,76.5137679 C78.6881793,77.1190832 78.6867176,77.3484987 78.6661101,77.6709222 C78.5760492,79.0800127 78.0800811,80.3987369 76.6261406,82.9905955 C74.9665581,85.9490408 72.3406911,87.3704285 69.8353591,87.635504 C69.9487658,91.0195577 67.4127587,95.909822 65.2495446,98.0931473 C61.2843496,102.095206 57.7002792,103.171679 50.5314978,103.210297 L50.4183126,103.204484 C47.1975408,102.855255 44.9303418,102.480852 42.6131937,101.924838 C41.3954658,101.632637 40.1639762,101.293435 38.3815329,100.768185 C38.0761682,100.6782 34.2493171,99.5353793 32.830513,99.1202948 C27.0389779,97.4259266 25.8241223,97.0779006 24.0762618,96.6241975 C23.9077587,96.5804581 23.738266,96.5369379 23.5658725,96.4931408 C22.5073214,96.2242123 21.6699054,96.0232121 18.9194763,95.3731026 C15.8907129,94.6572042 13.4386762,94.672461 8.66232783,95.1540332 C5.96544737,95.4259444 5.03647767,95.4993062 3.7150698,95.4993062 L-3.3391649,95.4993062 L0.229404316,93.6150118 C5.56954099,90.7952851 8.34058937,82.6002303 8.34058937,68.9349217 C8.34058937,55.2316091 5.55373693,46.5478992 0.130310817,42.8241911 L-2.52683632,40.9998018 L3.7150698,40.9998018 C7.96085382,40.9998018 12.1624096,39.5122826 16.3349973,36.5140159 C18.1673392,35.187034 21.3158014,32.3137204 25.750374,27.9136893 C30.2382306,23.5239781 33.7237384,19.599785 36.2005431,16.1537611 C37.0010241,15.0304959 38.151589,13.2725913 39.6278474,10.922611 C44.0475216,2.82884146 46.8987872,-1 48.9961061,-1 C53.6291229,-1 57.4358697,-0.125699245 60.403885,1.64307286 C63.5165891,3.4981581 65.0894999,6.49493476 65.0894999,10.4997027 C65.0894999,12.9839073 64.5912524,15.4244061 63.5982161,17.8155034 C62.6235131,20.1617474 61.5421493,22.0989153 60.3493565,23.6256232 C59.2445426,25.0394813 58.2293554,26.5108479 57.3038422,28.0385711 C56.8053293,28.8632233 56.4569458,29.6012553 56.252668,30.2478933 Z"></path>
                        </g>
                        <path d="M16.9439397,62.0725545 C34.6170517,62.0725545 60.9103569,36.4921719 60.9103569,25.9987617 C60.9103569,15.5053514 36.4156858,28.7141496 18.7425738,28.7141496 C1.06946184,28.7141496 -13.2574262,37.2207394 -13.2574262,47.7141496 C-13.2574262,58.2075598 -0.729172273,62.0725545 16.9439397,62.0725545 Z" fill="#00FFFC" opacity="0.3460984" filter="url(#filter-5)" mask="url(#mask-3)" transform="translate(23.826465, 42.010304) rotate(-20.000000) translate(-23.826465, -42.010304) "></path>
                        <path d="M79.735581,32.6154491 C111.029279,24.6933244 138.943788,27.4984943 138.943788,17.0050841 C138.943788,6.5116738 118.605998,-8.31283444 92.3724724,-8.31283444 C66.1389468,-8.31283444 52.0939664,24.1678232 52.0939664,34.6612335 C52.0939664,45.1546437 48.4418832,40.5375738 79.735581,32.6154491 Z" fill="#00FFFC" opacity="0.488351004" filter="url(#filter-6)" mask="url(#mask-3)"></path>
                        <path d="M81.4061279,88.9610945 C99.2088196,94.7963299 99.7422968,91.9767096 99.7422968,86.7512022 C99.7422968,81.5256947 87.4881704,67.2317116 75.4817834,67.2317116 C63.4753965,67.2317116 53.7422968,71.4678223 53.7422968,76.6933298 C53.7422968,81.9188372 63.6034363,83.1258591 81.4061279,88.9610945 Z" fill="#82DCFF" opacity="0.539388021" filter="url(#filter-7)" mask="url(#mask-3)" transform="translate(76.742297, 79.720825) rotate(99.000000) translate(-76.742297, -79.720825) "></path>
                        <path d="M86.1565754,56.0486833 C86.1225605,56.1288172 79.4254298,57.966209 66.0651832,61.5608585 L88.1485753,60.8741989 C86.8545902,57.5770545 86.1905902,55.9685493 86.1565754,56.0486833 Z" id="Path-6" fill="#32C5FF" opacity="0.407575335" filter="url(#filter-8)" mask="url(#mask-3)"></path>
                    </g>
                    <g id="Oval" transform="translate(33.215813, 68.058069) scale(-1, -1) rotate(-92.000000) translate(-33.215813, -68.058069) ">
                        <use fill="black" fill-opacity="1" filter="url(#filter-10)" xlink:href="#path-9"></use>
                        <ellipse stroke="#FFFFFF" stroke-width="2" fill="#0091FF" fill-rule="evenodd" cx="33.2158133" cy="68.0580687" rx="27.5" ry="11.5"></ellipse>
                    </g>
                </g>
                <polygon id="Path-5" fill="url(#linearGradient-11)" filter="url(#filter-12)" transform="translate(128.115757, 151.282312) rotate(7.000000) translate(-128.115757, -151.282312) " points="100.615757 136.758099 120.450387 177.282312 155.615757 160.743293 121.883749 125.282312"></polygon>
                <g id="Group-18" transform="translate(104.000000, 122.000000)">
                    <g id="Rectangle" opacity="0.136742001" transform="translate(2.000000, 35.000000) scale(-1, -1) translate(-2.000000, -35.000000) ">
                        <use fill="black" fill-opacity="1" filter="url(#filter-14)" xlink:href="#path-13"></use>
                        <use fill="#FFFFFF" fill-rule="evenodd" xlink:href="#path-13"></use>
                    </g>
                    <g id="Rectangle" transform="translate(5.500000, 12.500000) scale(-1, -1) translate(-5.500000, -12.500000) ">
                        <use fill="black" fill-opacity="1" filter="url(#filter-16)" xlink:href="#path-15"></use>
                        <use fill="#FFFFFF" fill-rule="evenodd" xlink:href="#path-15"></use>
                    </g>
                    <g id="Rectangle" transform="translate(11.000000, 18.000000) scale(-1, -1) translate(-11.000000, -18.000000) ">
                        <use fill="black" fill-opacity="1" filter="url(#filter-18)" xlink:href="#path-17"></use>
                        <use fill="#FFFFFF" fill-rule="evenodd" xlink:href="#path-17"></use>
                    </g>
                    <g id="Rectangle" transform="translate(12.000000, 28.000000) scale(-1, -1) translate(-12.000000, -28.000000) ">
                        <use fill="black" fill-opacity="1" filter="url(#filter-20)" xlink:href="#path-19"></use>
                        <use fill="#FFFFFF" fill-rule="evenodd" xlink:href="#path-19"></use>
                    </g>
                    <g id="Rectangle" transform="translate(22.000000, 1.000000) scale(-1, -1) translate(-22.000000, -1.000000) ">
                        <use fill="black" fill-opacity="1" filter="url(#filter-22)" xlink:href="#path-21"></use>
                        <use fill="#FFFFFF" fill-rule="evenodd" xlink:href="#path-21"></use>
                    </g>
                    <g id="Rectangle" opacity="0.266020275" transform="translate(14.500000, 20.500000) scale(-1, -1) translate(-14.500000, -20.500000) ">
                        <use fill="black" fill-opacity="1" filter="url(#filter-24)" xlink:href="#path-23"></use>
                        <use fill="#FFFFFF" fill-rule="evenodd" xlink:href="#path-23"></use>
                    </g>
                    <g id="Rectangle" opacity="0.153878348" transform="translate(22.500000, 16.500000) scale(-1, -1) translate(-22.500000, -16.500000) ">
                        <use fill="black" fill-opacity="1" filter="url(#filter-26)" xlink:href="#path-25"></use>
                        <use fill="#FFFFFF" fill-rule="evenodd" xlink:href="#path-25"></use>
                    </g>
                    <g id="Rectangle" opacity="0.266020275" transform="translate(11.000000, 13.000000) scale(-1, -1) translate(-11.000000, -13.000000) ">
                        <use fill="black" fill-opacity="1" filter="url(#filter-28)" xlink:href="#path-27"></use>
                        <use fill="#FFFFFF" fill-rule="evenodd" xlink:href="#path-27"></use>
                    </g>
                </g>
            </g>
        </g>
    </g>
</svg>