<?xml version="1.0" encoding="UTF-8"?>
<svg width="36px" height="36px" viewBox="0 0 36 36" version="1.1" xmlns="http://www.w3.org/2000/svg" xmlns:xlink="http://www.w3.org/1999/xlink">
    <!-- Generator: Sketch 60.1 (88133) - https://sketch.com -->
    <title>hide</title>
    <desc>Created with Sketch.</desc>
    <g id="hide" stroke="none" stroke-width="1" fill="none" fill-rule="evenodd">
        <path d="M17.1553775,11.6382455 C19.1544436,11.6382455 21.0718416,12.4049574 22.4853256,13.7696041 C23.8990099,15.1341348 24.6932505,16.9850749 24.6932505,18.9148525 C24.691848,19.182312 24.6761796,19.4495006 24.6461251,19.7152967 L30.1110379,25 C32.3371158,23.224764 34.3165063,21.1793606 36,18.9148525 C30.836594,12.093089 24.2879954,8 17.1553775,8 C15.7554782,8.00437126 14.3610689,8.16622408 13,8.48203822 L16.3261934,11.6837376 C16.6015329,11.6547248 16.8783149,11.6395994 17.1553775,11.6382455 Z M2.35386964,5.51810976 L7.90701989,10.9546203 C4.8257072,12.9759045 2.14626621,15.5296234 0,18.4910504 C4.98047245,25.1733901 11.2970127,29.1685048 18.1770315,29.1685048 C20.5514257,29.1587795 22.9000385,28.6836752 25.084223,27.771611 L31.4462188,34 L34,31.4730352 L4.91688882,3 L2.35386964,5.51810976 Z M12,18.3856717 C11.999469,17.1930816 12.3220211,16.022855 12.9332432,15 L15.433243,17.5079484 C15.3553074,17.779866 15.3133448,18.0609564 15.3082413,18.3438602 C15.3082413,20.1907518 16.8006425,21.6878981 18.6416807,21.6878981 C18.9238296,21.6834538 19.2040292,21.6412511 19.4749431,21.5624989 L20.7750749,22.8666221 L22,24.1039037 C19.9422023,25.2958183 17.407718,25.298876 15.3470141,24.1119745 C13.2864166,22.925073 12.0112356,20.7275116 12,18.3438602 L12,18.3856717 Z" id="Fill-1" fill="#FFFFFF"></path>
    </g>
</svg>