<?xml version="1.0" encoding="UTF-8"?>
<svg width="48px" height="48px" viewBox="0 0 48 48" version="1.1" xmlns="http://www.w3.org/2000/svg" xmlns:xlink="http://www.w3.org/1999/xlink">
    <!-- Generator: Sketch 60.1 (88133) - https://sketch.com -->
    <title>keyboard-right</title>
    <desc>Created with Sketch.</desc>
    <g id="keyboard-right" stroke="none" stroke-width="1" fill="none" fill-rule="evenodd">
        <path d="M46.1575668,10.5178053 C47.4982634,12.2261939 47.2001902,14.6979659 45.4918015,16.0386625 C45.4873462,16.042159 45.4828833,16.0456458 45.4784129,16.0491229 L17.0398153,38.1690658 C15.4148666,39.4329738 13.1149624,39.2344744 11.7272354,37.768441 C11.5732115,37.612387 11.4304783,37.4421902 11.3006298,37.2575712 L1.71720446,23.6318352 C0.466080057,21.8529836 0.893887427,19.3967028 2.67273897,18.1455784 C2.67723174,18.1424185 2.68173112,18.139268 2.68623708,18.1361269 C4.47998156,16.8857143 6.94708339,17.3207268 8.20499124,19.1092231 L15.445,29.403 L40.6022969,9.83571045 C42.32606,8.49494319 44.8093638,8.79985163 46.1575668,10.5178053 Z" id="形状结合" fill="#FFFFFF"></path>
    </g>
</svg>