<?xml version="1.0" encoding="UTF-8"?>
<svg width="48px" height="48px" viewBox="0 0 48 48" version="1.1" xmlns="http://www.w3.org/2000/svg" xmlns:xlink="http://www.w3.org/1999/xlink">
    <!-- Generator: Sketch 60.1 (88133) - https://sketch.com -->
    <title>keyboard-随机</title>
    <desc>Created with Sketch.</desc>
    <g id="keyboard-随机" stroke="none" stroke-width="1" fill="none" fill-rule="evenodd">
        <path d="M37.1125413,45 C36.4151668,45.0045638 35.7447956,44.6917292 35.2494521,44.1301958 C34.7527181,43.567073 34.473221,42.8006232 34.473221,42.0007983 C34.473221,41.2011271 34.7527181,40.4347286 35.2494521,39.8716058 L36.0367177,39.0018519 L29.240513,39.0018519 C28.3337513,39.0038514 27.4904158,38.4709252 27.0100093,37.5921995 L14.6770633,15.0088458 L5.62406924,15.0088458 C4.17482047,15.0088458 3,13.6660462 3,12.0096943 C3,10.3532912 4.17482047,9.01054294 5.62406924,9.01054294 L16.1201668,9.01054294 C17.0267491,9.0085435 17.8700845,9.54141837 18.3507153,10.4201954 L22.7066254,18.3678441 L27.0100093,10.4201954 C27.4904158,9.54141837 28.3337513,9.0085435 29.240513,9.01054294 L36.0367177,9.01054294 L35.2494521,8.14078903 C34.2205927,6.96481407 34.2205927,5.05812279 35.2494521,3.88194277 C36.278491,2.70601908 37.946771,2.70601908 38.9756304,3.88194277 L44.2237689,9.88024558 C44.7205478,10.4434196 45,11.2100232 45,12.0096943 C45,12.8093143 44.7205478,13.5759179 44.2237689,14.1390918 L38.9756304,20.1371896 C37.946771,21.3133183 36.278491,21.3133183 35.2494521,20.1371896 C34.2205927,18.9612146 34.2205927,17.0545233 35.2494521,15.8785484 L36.0367177,15.0088458 L30.7885793,15.0088458 L25.8028926,24.0060949 L30.6836165,33.0035491 L35.931755,33.0035491 L35.1444893,32.1337952 C34.1156299,30.9578203 34.1156299,29.051129 35.1444893,27.8750002 C36.173573,26.6990253 37.8418082,26.6990253 38.8707125,27.8750002 L44.118851,33.873303 C44.6155851,34.4364257 44.8950372,35.2030294 44.8950372,36.0027005 C44.8950372,36.8023204 44.6155851,37.568924 44.118851,38.132098 L38.8707125,44.1301958 C38.4014751,44.6630706 37.7736273,44.9737007 37.1125413,45 Z M16.5308772,39 L5.70621244,39 C4.21159675,39 3,37.6596882 3,36.0064049 C3,34.3530705 4.21159675,33.0128099 5.70621244,33.0128099 L15.0695225,33.0128099 L16.0167893,31.3662814 C16.8313824,29.9776115 18.5094192,29.5822523 19.7647317,30.4831453 C21.0202755,31.384243 21.3777268,33.2404766 20.5630875,34.6293512 L18.8041419,37.6229463 C18.3073553,38.4794727 17.4510357,38.998209 16.5308772,39 Z" id="Fill-1" fill="#FFFFFF"></path>
    </g>
</svg>