<?xml version="1.0" encoding="UTF-8"?>
<svg width="48px" height="48px" viewBox="0 0 48 48" version="1.1" xmlns="http://www.w3.org/2000/svg" xmlns:xlink="http://www.w3.org/1999/xlink">
    <!-- Generator: Sketch 60.1 (88133) - https://sketch.com -->
    <title>keyboard-delate</title>
    <desc>Created with Sketch.</desc>
    <defs>
        <polygon id="path-1" points="0 0 46 0 46 43 0 43"></polygon>
    </defs>
    <g id="keyboard-delate" stroke="none" stroke-width="1" fill="none" fill-rule="evenodd">
        <g id="Group-3" transform="translate(1.000000, 3.000000)">
            <mask id="mask-2" fill="white">
                <use xlink:href="#path-1"></use>
            </mask>
            <g id="Clip-2"></g>
            <path d="M44.850071,9.30246424 L36.8000124,9.30246424 L36.8000124,4.65126335 C36.8000124,2.09301542 34.7300537,0 32.1999876,0 L13.8000124,0 C11.2699463,0 9.19992588,2.09301542 9.19992588,4.65126335 L9.19992588,9.30246424 L1.14992897,9.30246424 C0.460107476,9.30246424 0,9.76775921 0,10.465202 C0,11.1629571 0.460107476,11.6282521 1.14992897,11.6282521 L44.850071,11.6282521 C45.5401396,11.6282521 46,11.1629571 46,10.465202 C46,9.76775921 45.5401396,9.30246424 44.850071,9.30246424 M39.1001791,16.2794529 L28.7499537,16.2794529 C29.4400222,16.2794529 29.9001297,16.6357003 29.9001297,17.1700712 L29.9001297,33.202387 C29.9001297,33.7368829 29.4400222,34.0932551 28.7499537,34.0932551 C28.0601322,34.0932551 27.6000247,33.7368829 27.6000247,33.202387 L27.6000247,17.1700712 C27.6000247,16.6357003 28.0601322,16.2794529 28.7499537,16.2794529 L17.2500463,16.2794529 C17.9400531,16.2794529 18.4000371,16.6357003 18.4000371,17.1700712 L18.4000371,33.202387 C18.4000371,33.7368829 17.9400531,34.0932551 17.2500463,34.0932551 C16.5600395,34.0932551 16.1001174,33.7368829 16.1001174,33.202387 L16.1001174,17.1700712 C16.1001174,16.6357003 16.5600395,16.2794529 17.2500463,16.2794529 L6.90012971,16.2794529 C6.21006115,16.2794529 5.74989191,16.6357003 5.74989191,17.1700712 L5.74989191,39.4373395 C5.74989191,41.3968246 7.82009759,43 10.3499166,43 L35.6500834,43 C38.1801495,43 40.2500463,41.3968246 40.2500463,39.4373395 L40.2500463,17.1700712 C40.2500463,16.6357003 39.7900006,16.2794529 39.1001791,16.2794529" id="Fill-1" fill="#FFFFFF" mask="url(#mask-2)"></path>
        </g>
    </g>
</svg>