<?xml version="1.0" encoding="UTF-8"?>
<svg width="56px" height="44px" viewBox="0 0 56 44" version="1.1" xmlns="http://www.w3.org/2000/svg" xmlns:xlink="http://www.w3.org/1999/xlink">
    <!-- Generator: Sketch 60.1 (88133) - https://sketch.com -->
    <title>protect</title>
    <desc>Created with Sketch.</desc>
    <defs>
        <polygon id="path-1" points="0 0 56 0 56 26 0 26"></polygon>
    </defs>
    <g id="protect" stroke="none" stroke-width="1" fill="none" fill-rule="evenodd">
        <g id="Group-2" transform="translate(0.000000, 3.000000)">
            <g id="Group">
                <g id="Group-3" transform="translate(0.000000, 9.000000)">
                    <mask id="mask-2" fill="white">
                        <use xlink:href="#path-1"></use>
                    </mask>
                    <g id="Clip-2"></g>
                </g>
                <path d="M25.5177054,8.99819584 L28.5914455,11.9161854 L27.565117,17.7394235 C27.5273327,17.953806 27.5605355,18.1746628 27.659684,18.3684593 C27.9112298,18.8601331 28.5137283,19.0547954 29.0054022,18.8032496 L29.0054022,18.8032496 L34.4166667,16.0347866 L39.8279312,18.8032496 C40.0217277,18.902398 40.2425844,18.9356008 40.4569669,18.8978166 C41.0008687,18.8019555 41.3640774,18.2833253 41.2682163,17.7394235 L41.2682163,17.7394235 L40.2418878,11.9161854 L43.1192319,9.18812997 C45.3314376,9.24477801 47.3291586,9.31317584 48.8260852,9.39276089 C51.6247826,9.8931246 55.7004106,12.8671237 55.6956931,16.3701685 L55.6956931,16.3701685 L55.6956931,27.6204957 C55.6956931,29.4869706 55.097014,31.2769767 54.0316777,32.5968974 C52.9661803,33.9166185 49.4362652,34.989874 47.9295654,34.989874 L47.9295654,34.989874 L36.7488889,34.989874 C35.4716691,34.989874 34.2690233,34.2449401 33.5025465,32.979191 L33.5025465,32.979191 L30.4834694,27.4193226 C29.9066891,26.4737145 29.0053993,25.9178324 28.0486221,25.9178324 C27.0919253,25.9178324 26.1906758,26.4737145 25.6138552,27.4193226 L25.6138552,27.4193226 L22.724598,32.9892173 C21.958242,34.2551659 20.7554351,35 19.4782154,35 L19.4782154,35 L8.41251327,34.9992294 C7.49799068,34.9978809 7.36561321,34.9947624 8.01538086,34.989874 C6.50852006,34.989874 3.03365865,33.9166185 1.96832232,32.5968974 C0.902824925,31.2769767 0.304257349,29.4869706 0.304257349,27.6204957 L0.304257349,27.6204957 L0.304257349,16.3701685 C0.303535489,12.8439287 4.40936359,9.86115041 7.23069085,9.39276089 C11.4504079,9.1665501 19.7464758,9.03072212 25.5177054,8.99819584 Z" id="Combined-Shape" fill="#FFFFFF"></path>
                <path d="M34.5,14.25 L30.7095123,16.2427773 C30.2206677,16.4997781 29.6160405,16.3118316 29.3590397,15.822987 C29.2567006,15.6283266 29.221386,15.4053585 29.2585628,15.1886009 L29.9824815,10.9678307 L29.9824815,10.9678307 L26.9159125,7.97866472 C26.520429,7.59316351 26.5123367,6.96005024 26.8978379,6.56456666 C27.0513465,6.40708303 27.2524889,6.30459585 27.4701259,6.27297134 L31.7080201,5.65716928 L31.7080201,5.65716928 L33.6032639,1.81698575 C33.8476862,1.32173209 34.4473121,1.11839309 34.9425657,1.36281539 C35.1397783,1.46014562 35.2994058,1.61977315 35.3967361,1.81698575 L37.2919799,5.65716928 L37.2919799,5.65716928 L41.5298741,6.27297134 C42.0764189,6.35238896 42.4551004,6.85983181 42.3756828,7.40637667 C42.3440583,7.6240137 42.2415711,7.82515611 42.0840875,7.97866472 L39.0175185,10.9678307 L39.0175185,10.9678307 L39.7414372,15.1886009 C39.8347982,15.7329373 39.4692104,16.2498932 38.9248739,16.3432542 C38.7081163,16.3804311 38.4851482,16.3451164 38.2904877,16.2427773 L34.5,14.25 L34.5,14.25 Z" id="Star" fill="#FFFFFF"></path>
            </g>
        </g>
    </g>
</svg>