<?xml version="1.0" encoding="UTF-8"?>
<svg width="54px" height="60px" viewBox="0 0 54 60" version="1.1" xmlns="http://www.w3.org/2000/svg" xmlns:xlink="http://www.w3.org/1999/xlink">
    <!-- Generator: Sketch 60.1 (88133) - https://sketch.com -->
    <title>record-make a record</title>
    <desc>Created with Sketch.</desc>
    <defs>
        <linearGradient x1="50%" y1="0%" x2="50%" y2="100%" id="linearGradient-1">
            <stop stop-color="#D2F49F" offset="0%"></stop>
            <stop stop-color="#A7E566" offset="100%"></stop>
        </linearGradient>
    </defs>
    <g id="record-make-a-record" stroke="none" stroke-width="1" fill="none" fill-rule="evenodd">
        <path d="M27.4998249,38 C36.6466516,38 44,32.1086598 44,24.5969458 L44,13.4030542 C44,5.89162785 36.6466516,0 27.4998249,0 C18.3529982,0 11,5.89162785 11,13.4030542 L11,24.5969458 C11,32.1086598 18.1737379,38 27.4998249,38 Z M54,22.8573643 C54,21.4287209 52.4945923,20.1589621 50.6129706,20.1589621 C48.7318082,20.1589621 47.4147372,21.4287209 47.4147372,22.8573643 C47.4147372,23.1746684 47.4147372,23.4922825 47.6027983,23.6509345 L47.6027983,25.7144961 C47.6027983,35.0795392 38.3833018,42.8572093 26.9057857,42.8572093 C15.6166982,42.8572093 6.20923241,35.0795392 6.20923241,25.7144961 L6.20923241,23.3333204 C6.20923241,23.1746684 6.39729353,23.0160163 6.39729353,22.6984797 C6.39729353,21.2700689 4.891794,20 3.19860083,20 C1.31707093,20 0,21.2700689 0,22.6984797 L0,26.6669509 C0,38.2542075 10.3485063,47.4602885 23.5191237,49.047584 L23.5191237,54.444466 L14.4876884,54.444466 C12.6061585,54.444466 11.1010264,55.7142248 11.1010264,57.3015978 C11.1010264,58.8888932 12.6061585,60 14.4876884,60 L38.9478527,60 C41.0174437,60 42.1464535,58.8888932 42.1464535,57.3015978 C42.1464535,55.8731869 40.8290151,54.444466 38.9478527,54.444466 L29.9164173,54.444466 L29.9164173,49.047584 C43.4635244,47.7779026 54,38.2542075 54,26.6669509 L54,22.8573643 Z" id="Fill-1" fill="url(#linearGradient-1)"></path>
    </g>
</svg>