<?xml version="1.0" encoding="UTF-8"?>
<svg width="56px" height="56px" viewBox="0 0 56 56" version="1.1" xmlns="http://www.w3.org/2000/svg" xmlns:xlink="http://www.w3.org/1999/xlink">
    <!-- Generator: Sketch 60.1 (88133) - https://sketch.com -->
    <title>record-select</title>
    <desc>Created with Sketch.</desc>
    <defs>
        <linearGradient x1="50%" y1="0%" x2="50%" y2="100%" id="linearGradient-1">
            <stop stop-color="#FFF0B4" offset="0%"></stop>
            <stop stop-color="#FFDC7D" offset="100%"></stop>
        </linearGradient>
    </defs>
    <g id="record-select" stroke="none" stroke-width="1" fill="none" fill-rule="evenodd">
        <path d="M51.1999101,0 L4.80002149,0 C2.14922253,0 0,2.14888325 0,4.80002735 L0,39.2000752 C0,41.8509458 2.14922253,43.9998974 4.80002149,43.9998974 L15.9998437,43.9998974 L27.9997265,56 L39.9995409,43.9998974 L51.1999101,43.9998974 C53.8507775,43.9998974 56,41.8509458 56,39.1998701 L56,4.80002735 C56,2.14888325 53.8507775,0 51.1999101,0 Z M12.2051282,37.3333333 L20.1025641,37.3333333 L20.1025641,29.4358974 L12.2051282,29.4358974 L12.2051282,37.3333333 Z M12.2051282,25.8461538 L20.1025641,25.8461538 L20.1025641,17.9487179 L12.2051282,17.9487179 L12.2051282,25.8461538 Z M12.2051282,13.6410256 L20.1025641,13.6410256 L20.1025641,5.74358974 L12.2051282,5.74358974 L12.2051282,13.6410256 Z M24.4102564,37.3333333 L32.3076923,37.3333333 L32.3076923,29.4358974 L24.4102564,29.4358974 L24.4102564,37.3333333 Z M24.4102564,25.8461538 L32.3076923,25.8461538 L32.3076923,17.9487179 L24.4102564,17.9487179 L24.4102564,25.8461538 Z M24.4102564,13.6410256 L32.3076923,13.6410256 L32.3076923,5.74358974 L24.4102564,5.74358974 L24.4102564,13.6410256 Z M35.8974359,37.3333333 L43.7948718,37.3333333 L43.7948718,29.4358974 L35.8974359,29.4358974 L35.8974359,37.3333333 Z M35.8974359,25.8461538 L43.7948718,25.8461538 L43.7948718,17.9487179 L35.8974359,17.9487179 L35.8974359,25.8461538 Z M35.8974359,13.6410256 L43.7948718,13.6410256 L43.7948718,5.74358974 L35.8974359,5.74358974 L35.8974359,13.6410256 Z" id="Fill-1" fill="url(#linearGradient-1)"></path>
    </g>
</svg>