<?xml version="1.0" encoding="UTF-8"?>
<svg width="32px" height="32px" viewBox="0 0 32 32" version="1.1" xmlns="http://www.w3.org/2000/svg" xmlns:xlink="http://www.w3.org/1999/xlink">
    <!-- Generator: Sketch 60.1 (88133) - https://sketch.com -->
    <title>record-volume</title>
    <desc>Created with Sketch.</desc>
    <g id="record-volume" stroke="none" stroke-width="1" fill="none" fill-rule="evenodd">
        <g id="Group" transform="translate(0.000000, 3.000000)" fill="#AC9AFE">
            <path d="M22.6912322,6.49730344 C22.0755772,5.83423219 21.077427,5.83423219 20.461772,6.49730344 C19.846076,7.16033058 19.846076,8.23528433 20.461772,8.89835559 C22.308778,10.8876576 22.308778,14.1125189 20.461772,16.1016444 C19.846076,16.7647157 19.846076,17.8396694 20.461772,18.5026966 C21.077427,19.1657678 22.0755772,19.1657678 22.6912322,18.5026966 C25.7695893,15.1875168 25.7695893,9.81235087 22.6912322,6.49695046 L22.6912322,6.49730344 Z" id="Fill-1"></path>
            <path d="M14.1717379,0.383716919 L6.85713013,5.98971137 L2.28333408,5.98971137 C1.01193923,5.98971137 0,7.02587232 0,8.30389975 L0,17.689758 C0,18.9505775 1.02218559,20.0039919 2.28333408,20.0039919 L6.85713013,20.0039919 L14.1717379,25.6099864 C15.1887112,26.3892125 16,25.9627937 16,24.6696069 L16,1.32423294 C16,0.0472525477 15.1812269,-0.389818813 14.1717379,0.383899013 L14.1717379,0.383716919 Z" id="Fill-3"></path>
            <path d="M27.1445475,1.5061356 C26.4250457,0.831288132 25.258841,0.831288132 24.5394828,1.5061356 C23.8201724,2.1807586 23.8201724,3.27451252 24.5394828,3.94918042 C29.5749902,8.6716312 29.5749902,16.3285372 24.5394828,21.0509879 C23.8201724,21.7256109 23.8201724,22.8194098 24.5394828,23.4940328 C25.2590324,24.1686557 26.4252371,24.1686557 27.1445475,23.4940328 C33.6184842,17.4222911 33.6184842,7.57787728 27.1445475,1.50595603 L27.1445475,1.5061356 Z" id="Fill-4"></path>
        </g>
    </g>
</svg>