<?xml version="1.0" encoding="UTF-8"?>
<svg width="44px" height="44px" viewBox="0 0 44 44" version="1.1" xmlns="http://www.w3.org/2000/svg" xmlns:xlink="http://www.w3.org/1999/xlink">
    <!-- Generator: Sketch 60.1 (88133) - https://sketch.com -->
    <title>redo</title>
    <desc>Created with Sketch.</desc>
    <defs>
        <polygon id="path-1" points="3.0151895e-16 0 44 0 44 44 3.0151895e-16 44"></polygon>
    </defs>
    <g id="redo" stroke="none" stroke-width="1" fill="none" fill-rule="evenodd">
        <g id="Group-3">
            <mask id="mask-2" fill="white">
                <use xlink:href="#path-1"></use>
            </mask>
            <g id="Clip-2"></g>
            <path d="M0,24.8016489 C0,22.326666 0.515320506,19.9816817 1.54629266,17.7671135 C2.57693367,15.5525453 4.00573776,13.5905203 5.83217509,11.8807403 C7.65894357,10.1707217 9.80201725,8.77866313 12.2615286,7.70390849 C14.7209737,6.62915386 17.3613538,5.9615692 20.1824703,5.70109491 C20.5441418,5.60323815 20.9239597,5.55433959 21.3217916,5.55433959 L29.9482608,5.55433959 L29.9482608,1.64633064 C29.9844876,0.995025632 30.2737055,0.506576692 30.8162457,0.18098382 C31.3587198,-0.144728316 32.064181,-0.0308304433 32.9321659,0.522856336 C33.185422,0.685712404 33.673589,1.01953455 34.3969318,1.52426313 C35.1205396,2.02905135 35.925078,2.59901777 36.8114081,3.23404313 C37.6974732,3.86900886 38.5926779,4.51220387 39.497022,5.16368777 C40.4011674,5.81499278 41.1788173,6.38501883 41.8298391,6.87346777 C42.4084736,7.29673851 42.9149858,7.72018814 43.3488458,8.14345887 C43.7829707,8.56696813 44,8.97389959 44,9.36478993 C44,9.82085848 43.8101242,10.2033407 43.4304387,10.5127135 C43.0505546,10.8222653 42.5892762,11.1723671 42.0468022,11.5630189 L39.3342997,13.4195542 C38.3936626,14.0382403 37.4985242,14.624546 36.6486857,15.1779942 C35.7985824,15.731681 35.0480861,16.21202 34.3969318,16.6191899 C33.7460425,17.0263599 33.2756908,17.2949442 32.9864729,17.4251217 C32.4439989,17.718215 31.9827205,17.9054607 31.6030351,17.9869782 C31.2231509,18.0683167 30.915919,18.0601471 30.6806769,17.9625289 C30.4455011,17.8649107 30.2647647,17.7021142 30.1381367,17.4740799 C30.0113762,17.2460457 29.9482608,17.0019106 29.9482608,16.7412574 L29.9482608,12.8332485 L21.0504552,12.8332485 C19.2783249,12.9960449 17.6324253,13.4113846 16.1133523,14.0790288 C14.5942132,14.7466135 13.2650161,15.6177831 12.1256948,16.6922993 C10.9863736,17.7671135 10.0912352,18.988385 9.44008092,20.3562328 C8.78919158,21.724021 8.46374691,23.189666 8.46374691,24.7527503 C8.46374691,26.4138107 8.82541833,27.9689042 9.54876116,29.418031 C10.272104,30.8673964 11.2667832,32.1292178 12.5326,33.2039725 C13.798748,34.2787271 15.2815942,35.1336768 16.9815359,35.7686425 C18.6814777,36.4038467 20.4898347,36.7213892 22.4068058,36.7213892 L30.8162457,36.672431 C31.3949465,36.672431 31.9827205,36.7700493 32.5795677,36.9654646 C33.1763488,37.1609396 33.7007425,37.4215928 34.1530139,37.7472453 C34.6049542,38.0728382 34.9756326,38.4555589 35.2651154,38.8951689 C35.5544658,39.3347193 35.6992403,39.8152967 35.6992403,40.3363646 C35.6992403,40.8248135 35.5544658,41.2969828 35.2651154,41.7528725 C34.9756326,42.208941 34.5868077,42.5995929 34.0986407,42.9254243 C33.6104737,43.2511364 33.0677347,43.5115511 32.4711524,43.7069664 C31.8743052,43.9024414 31.2865312,44 30.7078304,44 L20.8336246,44 C20.6887838,44 20.5260615,43.9837204 20.3451927,43.95134 C17.4878494,43.7233057 14.8203158,43.063831 12.3427242,41.9727371 C9.86513258,40.8816432 7.71325058,39.4814746 5.88654833,37.7716946 C4.06011099,36.0619146 2.62223366,34.099651 1.57344616,31.8850828 C0.52439375,29.6705146 0,27.3094892 0,24.8016489" id="Fill-1" fill="#FFFFFF" mask="url(#mask-2)"></path>
        </g>
    </g>
</svg>