<?xml version="1.0" encoding="UTF-8"?>
<svg width="36px" height="36px" viewBox="0 0 36 36" version="1.1" xmlns="http://www.w3.org/2000/svg" xmlns:xlink="http://www.w3.org/1999/xlink">
    <!-- Generator: Sketch 60.1 (88133) - https://sketch.com -->
    <title>search</title>
    <desc>Created with Sketch.</desc>
    <g id="search" stroke="none" stroke-width="1" fill="none" fill-rule="evenodd">
        <path d="M35.2469521,35.2469521 C34.2426873,36.251016 32.6147497,36.251016 31.6106356,35.2469521 L25.4712409,29.1075071 C22.8280397,31.0169964 19.5814057,32.142902 16.071451,32.142902 C7.19548995,32.142902 0,24.947412 0,16.071451 C0,7.19543973 7.19548995,0 16.071451,0 C24.947412,0 32.142902,7.19543973 32.142902,16.071451 C32.142902,19.5814057 31.0167955,22.8280397 29.1075071,25.4714418 L35.2469521,31.6108365 C36.251016,32.6149004 36.251016,34.242838 35.2469521,35.2469521 Z M15.6,4.8 C9.63543717,4.8 4.8,9.63544829 4.8,15.6000248 C4.8,21.5646013 9.63543717,26.4 15.6,26.4 C21.5645628,26.4 26.4,21.5646013 26.4,15.6000248 C26.4,9.63544829 21.5645628,4.8 15.6,4.8 Z" id="Fill-1" fill="#FFFFFF"></path>
    </g>
</svg>