<?xml version="1.0" encoding="UTF-8"?>
<svg width="44px" height="44px" viewBox="0 0 44 44" version="1.1" xmlns="http://www.w3.org/2000/svg" xmlns:xlink="http://www.w3.org/1999/xlink">
    <!-- Generator: Sketch 60.1 (88133) - https://sketch.com -->
    <title>set up</title>
    <desc>Created with Sketch.</desc>
    <defs>
        <polygon id="path-1" points="0 0 44 0 44 44 0 44"></polygon>
    </defs>
    <g id="set-up" stroke="none" stroke-width="1" fill="none" fill-rule="evenodd">
        <g id="Group-3">
            <mask id="mask-2" fill="white">
                <use xlink:href="#path-1"></use>
            </mask>
            <g id="Clip-2"></g>
            <path d="M21.9998465,28.0402008 C18.6654762,28.0402008 15.9597992,25.3342783 15.9597992,21.9999079 C15.9597992,18.6654762 18.6654762,15.9597992 21.9998465,15.9597992 C25.3342783,15.9597992 28.0402008,18.6654762 28.0402008,21.9999079 C28.0402008,25.3342783 25.3342783,28.0402008 21.9998465,28.0402008 M40.1206025,21.9999079 C40.1206025,19.4267586 41.7362253,17.2464659 44,16.3772707 C43.4597608,14.2557223 42.6248178,12.2571258 41.5348249,10.4206439 C39.3151851,11.4075734 36.6339388,11.0049567 34.8168543,9.18314567 C33.0000767,7.36606115 32.5972146,4.6798428 33.5843895,2.46517513 C31.7428742,1.37487531 29.7440935,0.540239202 27.6227293,0 C26.7487462,2.26377474 24.5681465,3.87939749 21.9998465,3.87939749 C19.4267586,3.87939749 17.2464659,2.26377474 16.3772707,0 C14.2556609,0.540239202 12.2571258,1.37487531 10.4206439,2.46517513 C11.4075734,4.68487628 11.0049567,7.36606115 9.18793361,9.18314567 C7.37084909,10.9999233 4.68481489,11.4027854 2.46996307,10.4206439 C1.37487531,12.2571258 0.540239202,14.2557223 0,16.3772707 C2.26377474,17.2512538 3.87939749,19.4316079 3.87939749,21.9999079 C3.87939749,24.5732414 2.26377474,26.7535341 0,27.6227293 C0.540239202,29.7440935 1.37487531,31.7428742 2.46517513,33.5793561 C4.68481489,32.5924266 7.36606115,32.9951046 9.18314567,34.8168543 C10.9999233,36.6339388 11.4027854,39.319973 10.4156105,41.5348249 C12.2571258,42.6248792 14.2556609,43.4597608 16.3772707,44 C17.2512538,41.7362253 19.4316079,40.1206025 21.9998465,40.1206025 C24.57318,40.1206025 26.7535341,41.7362253 27.6227293,44 C29.7440935,43.4597608 31.7428742,42.6248792 33.5793561,41.5348249 C32.5924266,39.3151851 32.9950433,36.6339388 34.8120664,34.8168543 C36.6289054,33.0000767 39.3151851,32.5972146 41.5297914,33.5793561 C42.6248178,31.7428742 43.4597608,29.7440935 44,27.6227293 C41.7362253,26.7535341 40.1206025,24.5732414 40.1206025,21.9999079" id="Fill-1" fill="#FFFFFF" mask="url(#mask-2)"></path>
        </g>
    </g>
</svg>