<?xml version="1.0" encoding="UTF-8"?>
<svg width="36px" height="36px" viewBox="0 0 36 36" version="1.1" xmlns="http://www.w3.org/2000/svg" xmlns:xlink="http://www.w3.org/1999/xlink">
    <!-- Generator: Sketch 60.1 (88133) - https://sketch.com -->
    <title>show</title>
    <desc>Created with Sketch.</desc>
    <defs>
        <polygon id="path-1" points="0.00613407821 0.0521925926 35.9583235 0.0521925926 35.9583235 25.9485671 0.00613407821 25.9485671"></polygon>
    </defs>
    <g id="show" stroke="none" stroke-width="1" fill="none" fill-rule="evenodd">
        <g id="Group-6" transform="translate(0.000000, 5.000000)">
            <g id="Group-3">
                <mask id="mask-2" fill="white">
                    <use xlink:href="#path-1"></use>
                </mask>
                <g id="Clip-2"></g>
                <path d="M17.9792397,20.2560115 C14.2287034,20.2560115 11.1601056,16.9910321 11.1601056,13.0003531 C11.1601056,9.00999506 14.2287034,5.74469465 17.9792397,5.74469465 C21.7295749,5.74469465 24.7981726,9.00999506 24.7981726,13.0003531 C24.7981726,16.9910321 21.7295749,20.2560115 17.9792397,20.2560115 M35.8676698,12.4825465 C32.7037927,4.97277284 25.7672564,0.0521925926 17.9792397,0.0521925926 C10.1910721,0.0521925926 3.25448547,4.97277284 0.0906083799,12.4825465 C-0.0302128492,12.8712091 -0.0302128492,13.1297111 0.0906083799,13.5182667 C3.25448547,21.0282543 10.1906698,25.9485671 17.9792397,25.9485671 C25.7676084,25.9485671 32.7037927,21.0267564 35.8676698,13.5182667 C35.9885413,13.1297111 35.9885413,12.8712091 35.8676698,12.4825465" id="Fill-1" fill="#FFFFFF" mask="url(#mask-2)"></path>
            </g>
            <path d="M18.0000826,17 C15.8003079,17 14,15.2003585 14,12.9999793 C14,10.7997655 15.8003079,9 18.0000826,9 C20.1997335,9 22,10.8001374 22,12.9999793 C22,15.2003585 20.1997335,17 18.0000826,17 Z" id="Fill-4" fill="#FFFFFF"></path>
        </g>
    </g>
</svg>