<?xml version="1.0" encoding="UTF-8"?>
<svg width="37px" height="37px" viewBox="0 0 37 37" version="1.1" xmlns="http://www.w3.org/2000/svg" xmlns:xlink="http://www.w3.org/1999/xlink">
    <!-- Generator: Sketch 60.1 (88133) - https://sketch.com -->
    <title>Combined Shape</title>
    <desc>Created with Sketch.</desc>
    <g id="最终版" stroke="none" stroke-width="1" fill="none" fill-rule="evenodd">
        <g id="舞台与编辑-icon" transform="translate(-1728.000000, -54.000000)" fill="#FFFFFF">
            <g id="Group" transform="translate(1710.000000, 45.000000)">
                <path d="M21.4628559,14 L21.4628559,38.3477312 C21.4628559,39.5184747 21.9257963,40.6413507 22.7499547,41.4692128 C23.5740649,42.297075 24.6916104,42.7619775 25.8570963,42.7619775 L50,42.7619775 L50,46 L24.5916744,46 C20.9512027,46 18,43.0355552 18,39.3785093 L18,14 L21.4628559,14 Z M50.5713521,9 C51.7458994,9 52.8723282,9.46658903 53.7028943,10.2971078 C54.5334117,11.1276752 55,12.2541057 55,13.4286548 L55,35.5713938 C55,38.0172156 53.01717,40 50.5713521,40 L28.4284533,40 C25.9826354,40 24,38.0172156 24,35.5713938 L24,13.4286548 C24,10.9828331 25.9826354,9 28.4284533,9 L50.5713521,9 Z M50.5713521,12.5428168 L28.4284533,12.5428168 C28.007648,12.5428168 27.644692,12.8389233 27.5604725,13.2515067 L27.5428113,13.4286548 L27.5428113,35.5713938 C27.5428113,35.9923457 27.8389173,36.3551564 28.2513054,36.4393759 L28.4284533,36.4570373 L50.5713521,36.4570373 C50.992352,36.4570373 51.3551621,36.1609308 51.4393328,35.748542 L51.4569942,35.5713938 L51.4569942,13.4286548 C51.4569942,13.0076543 51.1608881,12.6448436 50.7485,12.5606727 L50.5713521,12.5428168 Z" id="Combined-Shape"></path>
            </g>
        </g>
    </g>
</svg>