<?xml version="1.0" encoding="UTF-8"?>
<svg width="40px" height="40px" viewBox="0 0 40 40" version="1.1" xmlns="http://www.w3.org/2000/svg" xmlns:xlink="http://www.w3.org/1999/xlink">
    <!-- Generator: Sketch 60.1 (88133) - https://sketch.com -->
    <title>submit</title>
    <desc>Created with Sketch.</desc>
    <g id="submit" stroke="none" stroke-width="1" fill="none" fill-rule="evenodd">
        <path d="M24.0992248,0.329756012 C9.83878156,-2.15647285 -2.16996622,9.77760145 0.331819385,23.9494184 C1.83290057,31.6569818 8.08746285,38.1213819 16.0933438,39.613129 C30.103697,42.3480393 42.3627314,30.1652347 39.6107083,16.2420016 C38.3599138,8.28585437 31.8550648,1.82150309 24.0992248,0.329756012 Z M13.2585547,29.1336263 L6.44044361,21.3166045 C5.68297489,20.3395067 5.93539834,18.8738361 6.94543929,18.1409289 C7.95552982,17.4081655 9.47076481,17.4081655 10.2282335,18.3852633 L13.7636,22.7822751 C14.5210191,23.7593728 16.0361053,24.0037552 17.0463447,23.0266574 L30.1771745,12.522437 C31.187265,11.7895297 32.7023016,11.7895297 33.4599687,12.7666274 C34.2175862,13.7439171 34.2175862,15.2095877 33.2073469,15.942351 L16.7937228,29.3780086 C15.5310601,30.3551064 14.0160234,30.110772 13.2585547,29.1336263 Z" id="Fill-1" fill="#9678FF"></path>
    </g>
</svg>