<?xml version="1.0" encoding="UTF-8"?>
<svg width="36px" height="36px" viewBox="0 0 36 36" version="1.1" xmlns="http://www.w3.org/2000/svg" xmlns:xlink="http://www.w3.org/1999/xlink">
    <!-- Generator: Sketch 60.1 (88133) - https://sketch.com -->
    <title>unlock</title>
    <desc>Created with Sketch.</desc>
    <defs>
        <polygon id="path-1" points="1.99196054e-16 0 28 0 28 32 1.99196054e-16 32"></polygon>
    </defs>
    <g id="unlock" stroke="none" stroke-width="1" fill="none" fill-rule="evenodd">
        <g id="Group-3" transform="translate(4.000000, 2.000000)">
            <mask id="mask-2" fill="white">
                <use xlink:href="#path-1"></use>
            </mask>
            <g id="Clip-2"></g>
            <path d="M12.8799125,18.2240745 L12.8799125,23.3901587 C12.8799125,24.0240582 13.3815062,24.5379581 14,24.5379581 C14.6184937,24.5379581 15.1201312,24.0240582 15.1201312,23.3901587 L15.1201312,18.2240745 C15.1201312,17.5901749 14.6184937,17.0762302 14,17.0762302 C13.3815062,17.0762302 12.8799125,17.5901749 12.8799125,18.2240745 Z M15.48895,7.48419427 L15.4899562,7.60997867 L15.4899562,9.61423314 L23.5201312,9.61423314 C25.99415,9.61423314 28,11.6701915 28,14.2062831 L28,27.4079052 C28,29.9440416 25.99415,32 23.5201312,32 L4.4799125,32 C2.00585,32 0,29.9440416 0,27.4079052 L0,14.2062831 C0,11.6701915 2.00585,9.61423314 4.4799125,9.61423314 L13.25,9.61423314 L13.25,7.60997867 C13.25,4.67505416 10.9298937,2.29591285 8.06825,2.29591285 C5.447975,2.29591285 3.25141875,4.30124355 2.92740625,6.9367967 L2.918175,7.01688616 C2.85014375,7.64710861 2.29661875,8.10132259 1.6817125,8.03159184 C1.06698125,7.96172656 0.6236625,7.39437389 0.69186875,6.76428597 C1.1061375,2.92931914 4.27648125,0 8.06825,0 C12.1261937,0 15.4235,3.33940768 15.48895,7.48419427 Z" id="Fill-1" fill="#FFFFFF" mask="url(#mask-2)"></path>
        </g>
    </g>
</svg>