<?xml version="1.0" encoding="UTF-8"?>
<svg width="45px" height="38px" viewBox="0 0 45 38" version="1.1" xmlns="http://www.w3.org/2000/svg" xmlns:xlink="http://www.w3.org/1999/xlink">
    <!-- Generator: Sketch 60.1 (88133) - https://sketch.com -->
    <title>video</title>
    <desc>Created with Sketch.</desc>
    <g id="最终版" stroke="none" stroke-width="1" fill="none" fill-rule="evenodd">
        <g id="01添加角色" transform="translate(-698.000000, -45.000000)">
            <g id="video" transform="translate(698.000000, 45.000000)">
                <rect id="Rectangle" x="13" y="9" width="20" height="14"></rect>
                <path d="M37.9972424,36 L8.00289279,36 C7.64464919,36 7.31349131,36.1906345 7.13425685,36.4999551 C6.95524772,36.8094553 6.95524772,37.1905447 7.13425685,37.5000449 C7.31349131,37.8093655 7.64464919,38 8.00289279,38 L37.9970621,38 C38.5510801,38 39,37.5523548 39,36.9999101 C39,36.4476452 38.5510801,36 37.9970621,36 L37.9972424,36 Z M6.75382643,0 C3.02550045,0.00416655213 0.00409731166,3.07662839 0,6.86795936 L0,25.1318555 C0.00409731166,28.9233716 3.02550045,31.9956483 6.75382643,32 L38.2462191,32 C41.9744995,31.9956483 44.9959027,28.9233716 45,25.1318555 L45,6.86795936 C44.9959027,3.07662839 41.9744995,0.00416655213 38.2462191,0 L6.75382643,0 Z M26.1164694,17.5528176 L23.381448,19.1560049 L20.6464715,20.7597379 C20.1005691,21.080057 19.4278657,21.080057 18.8817841,20.7599199 C18.3359265,20.4397827 17.999642,19.8481725 18,19.2078981 L18,12.7921019 C17.999642,12.1518275 18.3359265,11.5602628 18.8817841,11.2400801 C19.4278657,10.919943 20.1005691,10.919943 20.6464715,11.2402621 L23.381448,12.8432674 L26.1164694,14.449138 C26.6630437,14.7687294 27,15.3605216 27,16.0009778 C27,16.6414341 26.6630437,17.2332262 26.1164694,17.5528176 Z" id="Fill-1" fill="#FFFFFF"></path>
            </g>
        </g>
    </g>
</svg>