<?xml version="1.0" encoding="UTF-8"?>
<svg width="56px" height="56px" viewBox="0 0 56 56" version="1.1" xmlns="http://www.w3.org/2000/svg" xmlns:xlink="http://www.w3.org/1999/xlink">
    <!-- Generator: Sketch 60.1 (88133) - https://sketch.com -->
    <title>Fill 1</title>
    <desc>Created with Sketch.</desc>
    <g id="最终版" stroke="none" stroke-width="1" fill="none" fill-rule="evenodd">
        <g id="11Error（红框闪动）" transform="translate(-239.000000, -669.000000)" fill="#FFFFFF">
            <path d="M266.999862,669 C282.464198,669 295,681.535749 295,696.999897 C295,712.464251 282.464198,725 266.999862,725 C251.535734,725 239,712.464251 239,696.999897 C239,681.535749 251.535734,669 266.999862,669 Z M267.123212,706.497797 C264.807058,706.497797 262.929515,708.37512 262.929515,710.6918 C262.929515,713.007867 264.807058,714.885463 267.123212,714.885463 C269.439297,714.885463 271.317181,713.007867 271.317181,710.6918 C271.317181,708.37512 269.439297,706.497797 267.123212,706.497797 Z M266.876512,703.290749 C268.920644,703.290749 270.577093,701.650278 270.577093,699.627531 L270.577093,682.53106 C270.577093,680.507759 268.920644,678.867841 266.876512,678.867841 C264.83273,678.867841 263.176211,680.508312 263.176211,682.53106 L263.176211,699.627531 C263.176211,701.650831 264.83273,703.290749 266.876512,703.290749 Z" id="Fill-1"></path>
        </g>
    </g>
</svg>