<?xml version="1.0" encoding="UTF-8"?>
<svg width="44px" height="44px" viewBox="0 0 44 44" version="1.1" xmlns="http://www.w3.org/2000/svg" xmlns:xlink="http://www.w3.org/1999/xlink">
    <!-- Generator: Sketch 60.1 (88133) - https://sketch.com -->
    <title>zoom out</title>
    <desc>Created with Sketch.</desc>
    <defs>
        <polygon id="path-1" points="0 0 44 0 44 44 0 44"></polygon>
    </defs>
    <g id="zoom-out" stroke="none" stroke-width="1" fill="none" fill-rule="evenodd">
        <g id="Group-3">
            <mask id="mask-2" fill="white">
                <use xlink:href="#path-1"></use>
            </mask>
            <g id="Clip-2"></g>
            <path d="M25.7032756,16.0645129 L12.8517751,16.0645129 C11.1517601,16.0664347 9.74748105,17.3921949 9.64776763,19.08919 C9.54827384,20.786185 10.7877183,22.2672258 12.4757632,22.4680254 L12.8517751,22.4904828 L25.7032756,22.4904828 C26.8511879,22.4904828 27.911851,21.8779262 28.4858072,20.8839766 C29.0597633,19.8898624 29.0597633,18.6651334 28.4858072,17.6710191 C27.911851,16.67685 26.8511879,16.0645129 25.7032756,16.0645129 M19.2775253,0 C29.9241293,0 38.5550507,8.63086645 38.5550507,19.2775253 C38.5550507,29.9241843 29.9241293,38.5550507 19.2775253,38.5550507 C8.63092135,38.5550507 0,29.9241843 0,19.2775253 C0,8.63086645 8.63092135,0 19.2775253,0 M38.5550507,34.0119952 L43.0980513,38.5550507 C44.3156971,39.8157995 44.2982912,41.8195122 43.0590115,43.0590115 C41.8195122,44.2982912 39.8157995,44.3156971 38.5550507,43.0980513 L34.0119952,38.5550507 C32.7944043,37.2943019 32.8117553,35.2903696 34.051035,34.051035 C35.2903696,32.8117553 37.2943019,32.7944043 38.5550507,34.0119952" id="Fill-1" fill="#CB8AFF" mask="url(#mask-2)"></path>
        </g>
    </g>
</svg>