<?xml version="1.0" encoding="UTF-8"?>
<svg width="44px" height="44px" viewBox="0 0 44 44" version="1.1" xmlns="http://www.w3.org/2000/svg" xmlns:xlink="http://www.w3.org/1999/xlink">
    <!-- Generator: Sketch 60.1 (88133) - https://sketch.com -->
    <title>Slice</title>
    <desc>Created with Sketch.</desc>
    <defs>
        <polygon id="path-1" points="0 0 44 0 44 44 0 44"></polygon>
    </defs>
    <g id="6.28--(第五批）" stroke="none" stroke-width="1" fill="none" fill-rule="evenodd">
        <g id="show-pic-mini" transform="translate(-1659.000000, -723.000000)">
            <g id="zoom-in" transform="translate(1659.000000, 723.000000)">
                <g id="Group-3">
                    <mask id="mask-2" fill="white">
                        <use xlink:href="#path-1"></use>
                    </mask>
                    <g id="Clip-2"></g>
                    <path d="M19.2775164,9.63876267 C17.6487182,9.63898231 16.2777142,10.8581107 16.0870179,12.4757632 L16.0645055,12.8517202 L16.0645055,16.0645129 L12.8517691,16.0645129 C11.1517549,16.0664347 9.74747654,17.3921949 9.64776317,19.08919 C9.54826943,20.786185 10.7877682,22.2672258 12.4757575,22.4679705 L12.8517691,22.4904828 L16.0645055,22.4904828 L16.0645055,25.7032756 C16.0664273,27.4032906 17.3921869,28.8075147 19.0891811,28.9072831 C20.7861754,29.0067769 22.2672155,27.7672775 22.4679601,26.0792875 L22.4905274,25.7032756 L22.4905274,22.4904828 L25.7032637,22.4904828 C27.4032779,22.4885611 28.8075014,21.1628558 28.9072697,19.4658058 C29.0067634,17.7688108 27.7672647,16.28777 26.0792754,16.0870253 L25.7032637,16.0645129 L22.4905274,16.0645129 L22.4905274,12.8517202 C22.4905274,11.9995987 22.1518533,11.1823989 21.5493451,10.5796708 C20.9468369,9.97721726 20.1296375,9.63876267 19.2775164,9.63876267 M19.2775164,0 C29.9241155,0 38.5550329,8.63086645 38.5550329,19.2775253 C38.5550329,29.9241293 29.9241155,38.5550507 19.2775164,38.5550507 C8.63091736,38.5550507 0,29.9241293 0,19.2775253 C0,8.63086645 8.63091736,0 19.2775164,0 M38.5550329,34.0119952 L43.0980313,38.5550507 C44.3156766,39.8157995 44.2983256,41.8195122 43.0589916,43.0590115 C41.8194928,44.2982912 39.8157811,44.3156971 38.5550329,43.0980513 L34.0120344,38.5550507 C32.7943892,37.2943019 32.8117402,35.2903696 34.0510742,34.051035 C35.2903533,32.8117553 37.2942846,32.7944043 38.5550329,34.0119952" id="Fill-1" fill="#CB8AFF" mask="url(#mask-2)"></path>
                </g>
            </g>
        </g>
    </g>
</svg>