<?xml version="1.0" encoding="UTF-8"?>
<svg width="36px" height="36px" viewBox="0 0 36 36" version="1.1" xmlns="http://www.w3.org/2000/svg" xmlns:xlink="http://www.w3.org/1999/xlink">
    <!-- Generator: Sketch 60.1 (88133) - https://sketch.com -->
    <title>Fill 1</title>
    <desc>Created with Sketch.</desc>
    <g id="5.19（第一批）" stroke="none" stroke-width="1" fill="none" fill-rule="evenodd">
        <g id="resources-library" transform="translate(-1492.000000, -148.000000)" fill="#FFFFFF">
            <g id="Group-2" transform="translate(1472.000000, 138.000000)">
                <path d="M55.2469521,45.2469521 C54.2426873,46.251016 52.6147497,46.251016 51.6106356,45.2469521 L45.4712409,39.1075071 C42.8280397,41.0169964 39.5814057,42.142902 36.071451,42.142902 C27.1954899,42.142902 20,34.947412 20,26.071451 C20,17.1954397 27.1954899,10 36.071451,10 C44.947412,10 52.142902,17.1954397 52.142902,26.071451 C52.142902,29.5814057 51.0167955,32.8280397 49.1075071,35.4714418 L55.2469521,41.6108365 C56.251016,42.6149004 56.251016,44.242838 55.2469521,45.2469521 Z M35.6,14.8 C29.6354372,14.8 24.8,19.6354483 24.8,25.6000248 C24.8,31.5646013 29.6354372,36.4 35.6,36.4 C41.5645628,36.4 46.4,31.5646013 46.4,25.6000248 C46.4,19.6354483 41.5645628,14.8 35.6,14.8 Z" id="Fill-1"></path>
            </g>
        </g>
    </g>
</svg>