<?xml version="1.0" encoding="UTF-8"?>
<svg width="22px" height="22px" viewBox="0 0 22 22" version="1.1" xmlns="http://www.w3.org/2000/svg" xmlns:xlink="http://www.w3.org/1999/xlink">
    <!-- Generator: Sketch 60.1 (88133) - https://sketch.com -->
    <title>Group 3</title>
    <desc>Created with Sketch.</desc>
    <defs>
        <polygon id="path-1" points="0 0 22 0 22 22 0 22"></polygon>
    </defs>
    <g id="5.19（第一批）" stroke="none" stroke-width="1" fill="none" fill-rule="evenodd">
        <g id="resources-library" transform="translate(-1858.000000, -154.000000)">
            <g id="Group-3" transform="translate(1858.000000, 154.000000)">
                <mask id="mask-2" fill="white">
                    <use xlink:href="#path-1"></use>
                </mask>
                <g id="Clip-2"></g>
                <path d="M21.5266972,19.2495608 L13.2156402,10.7572634 L21.0503714,2.74924713 C21.6838664,2.10171961 21.6838664,1.13049107 21.0503714,0.485598586 C20.4169072,-0.159293903 19.4668029,-0.161866195 18.8357018,0.485598586 L11.0009399,8.49364627 L3.16611661,0.485598586 C2.53265236,-0.161866195 1.5824253,-0.161866195 0.951447033,0.485598586 C0.320438074,1.13306337 0.317921404,2.1041978 0.951447033,2.74924713 L8.81815839,10.7245451 L0.475121204,19.2495608 C-0.158373735,19.8970256 -0.158373735,20.8681287 0.475121204,21.513178 C0.791853327,21.836879 1.10861614,21.9974277 1.5824253,21.9974277 C2.05632653,21.9974277 2.37302797,21.836879 2.68982147,21.513178 L11.0426798,12.9756773 L19.4691968,21.5155935 C19.7859289,21.8393572 20.1026917,22 20.5765929,22 C21.0503714,22 21.3671342,21.8393572 21.5266972,21.5155935 C22.1577676,20.8681287 22.1577676,19.8970256 21.5266972,19.2495608" id="Fill-1" fill="#FFFFFF" mask="url(#mask-2)"></path>
            </g>
        </g>
    </g>
</svg>