<?xml version="1.0" encoding="UTF-8"?>
<svg width="48px" height="67px" viewBox="0 0 48 67" version="1.1" xmlns="http://www.w3.org/2000/svg" xmlns:xlink="http://www.w3.org/1999/xlink">
    <!-- Generator: Sketch 60.1 (88133) - https://sketch.com -->
    <title>Fill 1</title>
    <desc>Created with Sketch.</desc>
    <defs>
        <path d="M1977.58306,204 L1963.41669,204 C1962.56653,204 1962,204.599771 1962,205.499956 C1962,206.399789 1962.56653,207 1963.41669,207 L1977.58306,207 C1978.43323,207 1979,206.399789 1979,205.499956 C1979,204.599771 1978.43323,204 1977.58306,204 Z M1979.62505,198 L1960.37495,198 C1959.54979,198 1959,198.599771 1959,199.500044 C1959,200.399877 1959.54979,201 1960.37495,201 L1979.62505,201 C1980.44989,201 1981,200.399877 1981,199.500044 C1981,198.599771 1980.44989,198 1979.62505,198 Z M1970.07012,145 C1956.7608,145 1946,155.249308 1946,167.714878 C1946,174.362852 1949.11499,180.595637 1954.35356,184.889305 C1955.48658,185.720494 1956.05271,187.105485 1956.05271,188.490558 L1956.05271,190.429351 C1956.05271,192.922676 1958.17663,195 1960.58354,195 L1979.415,195 C1981.96352,195 1983.9459,192.922676 1983.9459,190.429351 L1983.9459,188.490558 C1983.9459,187.105485 1984.51237,185.858701 1985.64497,184.889305 C1990.88363,180.595637 1993.99862,174.362852 1993.99862,167.714878 C1994.14023,155.249308 1983.37944,145 1970.07012,145 Z M1984.59018,171 C1983.89405,171 1983.33748,170.450276 1983.33748,169.763443 C1983.19826,166.1908 1981.66704,162.481049 1979.16165,159.73267 C1977.49121,157.946711 1974.56807,155.748057 1970.39192,155.748057 C1969.69612,155.748057 1969,155.198655 1969,154.374069 C1969,153.549724 1969.5569,153 1970.39192,153 C1974.42885,153 1978.187,154.648931 1981.11014,157.8092 C1984.03328,160.969549 1985.84295,165.366536 1985.98217,169.626012 C1986.1214,170.312845 1985.42519,171 1984.59018,171 Z M1974.50003,209 L1965.50005,209 C1964.59978,209 1964,209.600211 1964,210.500044 C1964,211.400229 1964.59978,212 1965.50005,212 L1974.50003,212 C1975.40022,212 1976,211.400229 1976,210.500044 C1976,209.600211 1975.40022,209 1974.50003,209 Z" id="path-1"></path>
        <filter x="-22.9%" y="-16.4%" width="145.8%" height="132.8%" filterUnits="objectBoundingBox" id="filter-2">
            <feGaussianBlur stdDeviation="10.5" in="SourceAlpha" result="shadowBlurInner1"></feGaussianBlur>
            <feOffset dx="0" dy="1" in="shadowBlurInner1" result="shadowOffsetInner1"></feOffset>
            <feComposite in="shadowOffsetInner1" in2="SourceAlpha" operator="arithmetic" k2="-1" k3="1" result="shadowInnerInner1"></feComposite>
            <feColorMatrix values="0 0 0 0 0.407796439   0 0 0 0 0.27273247   0 0 0 0 1  0 0 0 1 0" type="matrix" in="shadowInnerInner1"></feColorMatrix>
        </filter>
    </defs>
    <g id="7.2-(提示指引按钮布局调整）" stroke="none" stroke-width="1" fill="none" fill-rule="evenodd">
        <g id="side-bar" transform="translate(-1946.000000, -145.000000)">
            <g id="Fill-1">
                <use fill="#AA78FF" fill-rule="evenodd" xlink:href="#path-1"></use>
                <use fill="black" fill-opacity="1" filter="url(#filter-2)" xlink:href="#path-1"></use>
            </g>
        </g>
    </g>
</svg>