<?xml version="1.0" encoding="UTF-8"?>
<svg width="48px" height="67px" viewBox="0 0 48 67" version="1.1" xmlns="http://www.w3.org/2000/svg" xmlns:xlink="http://www.w3.org/1999/xlink">
    <!-- Generator: Sketch 60.1 (88133) - https://sketch.com -->
    <title>Fill 1</title>
    <desc>Created with Sketch.</desc>
    <defs>
        <path d="M1973.58306,197 L1959.41669,197 C1958.56653,197 1958,197.599771 1958,198.499956 C1958,199.399789 1958.56653,200 1959.41669,200 L1973.58306,200 C1974.43323,200 1975,199.399789 1975,198.499956 C1975,197.599771 1974.43323,197 1973.58306,197 Z M1975.62505,191 L1956.37495,191 C1955.54979,191 1955,191.599771 1955,192.500044 C1955,193.399877 1955.54979,194 1956.37495,194 L1975.62505,194 C1976.44989,194 1977,193.399877 1977,192.500044 C1977,191.599771 1976.44989,191 1975.62505,191 Z M1966.07012,138 C1952.7608,138 1942,148.249308 1942,160.714878 C1942,167.362852 1945.11499,173.595637 1950.35356,177.889305 C1951.48658,178.720494 1952.05271,180.105485 1952.05271,181.490558 L1952.05271,183.429351 C1952.05271,185.922676 1954.17663,188 1956.58354,188 L1975.415,188 C1977.96352,188 1979.9459,185.922676 1979.9459,183.429351 L1979.9459,181.490558 C1979.9459,180.105485 1980.51237,178.858701 1981.64497,177.889305 C1986.88363,173.595637 1989.99862,167.362852 1989.99862,160.714878 C1990.14023,148.249308 1979.37944,138 1966.07012,138 Z M1980.59018,164 C1979.89405,164 1979.33748,163.450276 1979.33748,162.763443 C1979.19826,159.1908 1977.66704,155.481049 1975.16165,152.73267 C1973.49121,150.946711 1970.56807,148.748057 1966.39192,148.748057 C1965.69612,148.748057 1965,148.198655 1965,147.374069 C1965,146.549724 1965.5569,146 1966.39192,146 C1970.42885,146 1974.187,147.648931 1977.11014,150.8092 C1980.03328,153.969549 1981.84295,158.366536 1981.98217,162.626012 C1982.1214,163.312845 1981.42519,164 1980.59018,164 Z M1970.50003,202 L1961.50005,202 C1960.59978,202 1960,202.600211 1960,203.500044 C1960,204.400229 1960.59978,205 1961.50005,205 L1970.50003,205 C1971.40022,205 1972,204.400229 1972,203.500044 C1972,202.600211 1971.40022,202 1970.50003,202 Z" id="path-1"></path>
        <filter x="-22.9%" y="-16.4%" width="145.8%" height="132.8%" filterUnits="objectBoundingBox" id="filter-2">
            <feGaussianBlur stdDeviation="10.5" in="SourceAlpha" result="shadowBlurInner1"></feGaussianBlur>
            <feOffset dx="0" dy="1" in="shadowBlurInner1" result="shadowOffsetInner1"></feOffset>
            <feComposite in="shadowOffsetInner1" in2="SourceAlpha" operator="arithmetic" k2="-1" k3="1" result="shadowInnerInner1"></feComposite>
            <feColorMatrix values="0 0 0 0 0.137254902   0 0 0 0 0.466666667   0 0 0 0 1  0 0 0 1 0" type="matrix" in="shadowInnerInner1"></feColorMatrix>
        </filter>
    </defs>
    <g id="改蓝色" stroke="none" stroke-width="1" fill="none" fill-rule="evenodd">
        <g id="01-blue-landscape" transform="translate(-1942.000000, -138.000000)">
            <g id="Fill-1">
                <use fill="#018CF7" fill-rule="evenodd" xlink:href="#path-1"></use>
                <use fill="black" fill-opacity="1" filter="url(#filter-2)" xlink:href="#path-1"></use>
            </g>
        </g>
    </g>
</svg>