<?xml version="1.0" encoding="UTF-8"?>
<svg width="58px" height="113px" viewBox="0 0 58 113" version="1.1" xmlns="http://www.w3.org/2000/svg" xmlns:xlink="http://www.w3.org/1999/xlink">
    <!-- Generator: Sketch 60.1 (88133) - https://sketch.com -->
    <title>Group 5</title>
    <desc>Created with Sketch.</desc>
    <g id="slices" stroke="none" stroke-width="1" fill="none" fill-rule="evenodd">
        <g id="side-close">
            <g id="Group-5">
                <circle id="Oval" fill="#AC9AFE" cx="56.5" cy="56.5" r="56.5"></circle>
                <path d="M33.2227494,56.6469286 L44.6187221,44.9989049 C45.5401692,44.0570467 45.5401692,42.6443507 44.6187221,41.7063252 C43.6973195,40.7682998 42.3153496,40.7645583 41.3973845,41.7063252 L30.0013671,53.3543946 L18.6052605,41.7063252 C17.683858,40.7645583 16.3017095,40.7645583 15.383923,41.7063252 C14.4660917,42.6480922 14.4624311,44.0606513 15.383923,44.9989049 L26.8264122,56.5993384 L14.6910854,68.9993612 C13.7696382,69.9411282 13.7696382,71.3536417 14.6910854,72.2918953 C15.1517867,72.7627331 15.6125326,72.9962585 16.3017095,72.9962585 C16.9910204,72.9962585 17.451677,72.7627331 17.9124676,72.2918953 L30.0620797,59.8737124 L42.3188317,72.2954087 C42.7795329,72.7663378 43.2402789,73 43.9295897,73 C44.6187221,73 45.079468,72.7663378 45.3115596,72.2954087 C46.2294801,71.3536417 46.2294801,69.9411282 45.3115596,68.9993612 L33.2227494,56.6469286 Z" id="Fill-1" fill="#FFFFFF"></path>
            </g>
        </g>
    </g>
</svg>