<?xml version="1.0" encoding="UTF-8"?>
<svg width="69px" height="64px" viewBox="0 0 69 64" version="1.1" xmlns="http://www.w3.org/2000/svg" xmlns:xlink="http://www.w3.org/1999/xlink">
    <!-- Generator: Sketch 60.1 (88133) - https://sketch.com -->
    <title>Group 3</title>
    <desc>Created with Sketch.</desc>
    <defs>
        <polygon id="path-1" points="0 0 69 0 69 64 0 64"></polygon>
    </defs>
    <g id="改蓝色" stroke="none" stroke-width="1" fill="none" fill-rule="evenodd">
        <g id="39-删除代码" transform="translate(-845.000000, -1372.000000)">
            <g id="Group-3" transform="translate(845.000000, 1372.000000)">
                <mask id="mask-2" fill="white">
                    <use xlink:href="#path-1"></use>
                </mask>
                <g id="Clip-2"></g>
                <path d="M67.2751065,13.8455282 L55.2000185,13.8455282 L55.2000185,6.92281056 C55.2000185,3.11518574 52.0950806,0 48.2999815,0 L20.7000185,0 C16.9049194,0 13.7998888,3.11518574 13.7998888,6.92281056 L13.7998888,13.8455282 L1.72489345,13.8455282 C0.690161214,13.8455282 0,14.5380602 0,15.5761146 C0,16.6146338 0.690161214,17.3071658 1.72489345,17.3071658 L67.2751065,17.3071658 C68.3102094,17.3071658 69,16.6146338 69,15.5761146 C69,14.5380602 68.3102094,13.8455282 67.2751065,13.8455282 M58.6502687,24.2298835 L43.1249305,24.2298835 C44.1600334,24.2298835 44.8501946,24.760112 44.8501946,25.5554549 L44.8501946,49.4175062 C44.8501946,50.2130349 44.1600334,50.7434494 43.1249305,50.7434494 C42.0901983,50.7434494 41.4000371,50.2130349 41.4000371,49.4175062 L41.4000371,25.5554549 C41.4000371,24.760112 42.0901983,24.2298835 43.1249305,24.2298835 L25.8750695,24.2298835 C26.9100797,24.2298835 27.6000556,24.760112 27.6000556,25.5554549 L27.6000556,49.4175062 C27.6000556,50.2130349 26.9100797,50.7434494 25.8750695,50.7434494 C24.8400593,50.7434494 24.150176,50.2130349 24.150176,49.4175062 L24.150176,25.5554549 C24.150176,24.760112 24.8400593,24.2298835 25.8750695,24.2298835 L10.3501946,24.2298835 C9.31509173,24.2298835 8.62483786,24.760112 8.62483786,25.5554549 L8.62483786,58.6974355 C8.62483786,61.6138785 11.7301464,64 15.5248749,64 L53.4751251,64 C57.2702242,64 60.3750695,61.6138785 60.3750695,58.6974355 L60.3750695,25.5554549 C60.3750695,24.760112 59.6850009,24.2298835 58.6502687,24.2298835" id="Fill-1" fill="#FFFFFF" mask="url(#mask-2)"></path>
            </g>
        </g>
    </g>
</svg>