<?xml version="1.0" encoding="UTF-8"?>
<svg width="67px" height="72px" viewBox="0 0 67 72" version="1.1" xmlns="http://www.w3.org/2000/svg" xmlns:xlink="http://www.w3.org/1999/xlink">
    <!-- Generator: Sketch 60.1 (88133) - https://sketch.com -->
    <title>Group 3</title>
    <desc>Created with Sketch.</desc>
    <defs>
        <polygon id="path-1" points="0 0 69 0 69 72 0 72"></polygon>
    </defs>
    <g id="6.28--(第五批）" stroke="none" stroke-width="1" fill="none" fill-rule="evenodd">
        <g id="delete-code-open" transform="translate(-846.000000, -1364.000000)">
            <g id="Group-3" transform="translate(845.000000, 1364.000000)">
                <mask id="mask-2" fill="white">
                    <use xlink:href="#path-1"></use>
                </mask>
                <g id="Clip-2"></g>
                <path d="M65.1484248,7.94772637 L53.6643337,11.6791338 L51.5250963,5.09523808 C50.3484755,1.47397168 46.4328588,-0.52926743 42.823505,0.643482699 L16.5743804,9.17234029 C12.9650266,10.3450904 10.9746124,14.2673153 12.1512332,17.8885817 L14.2904706,24.4724774 L2.80646753,28.2038562 C1.8223787,28.523606 1.38000055,29.3955147 1.700777,30.3827631 C2.02169708,31.3704535 2.89208357,31.8158191 3.8761724,31.4960693 L66.2181297,11.2399394 C67.202571,10.9200751 67.6445967,10.0482809 67.3236766,9.06059049 C67.0029002,8.07334209 66.1328662,7.627862 65.1484248,7.94772637 M58.6502687,32.2298835 L43.1249305,32.2298835 C44.1600334,32.2298835 44.8501946,32.760112 44.8501946,33.5554549 L44.8501946,57.4175062 C44.8501946,58.2130349 44.1600334,58.7434494 43.1249305,58.7434494 C42.0901983,58.7434494 41.4000371,58.2130349 41.4000371,57.4175062 L41.4000371,33.5554549 C41.4000371,32.760112 42.0901983,32.2298835 43.1249305,32.2298835 L25.8750695,32.2298835 C26.9100797,32.2298835 27.6000556,32.760112 27.6000556,33.5554549 L27.6000556,57.4175062 C27.6000556,58.2130349 26.9100797,58.7434494 25.8750695,58.7434494 C24.8400593,58.7434494 24.150176,58.2130349 24.150176,57.4175062 L24.150176,33.5554549 C24.150176,32.760112 24.8400593,32.2298835 25.8750695,32.2298835 L10.3501946,32.2298835 C9.31509173,32.2298835 8.62483786,32.760112 8.62483786,33.5554549 L8.62483786,66.6974355 C8.62483786,69.6138785 11.7301464,72 15.5248749,72 L53.4751251,72 C57.2702242,72 60.3750695,69.6138785 60.3750695,66.6974355 L60.3750695,33.5554549 C60.3750695,32.760112 59.6850009,32.2298835 58.6502687,32.2298835" id="Fill-1" fill="#FFFFFF" mask="url(#mask-2)"></path>
            </g>
        </g>
    </g>
</svg>