<?xml version="1.0" encoding="UTF-8"?>
<svg width="28px" height="28px" viewBox="0 0 28 28" version="1.1" xmlns="http://www.w3.org/2000/svg" xmlns:xlink="http://www.w3.org/1999/xlink">
    <!-- Generator: Sketch 60.1 (88133) - https://sketch.com -->
    <title>isometric</title>
    <desc>Created with Sketch.</desc>
    <defs>
        <polygon id="path-1" points="2.09912803e-16 0 30 0 30 30 2.09912803e-16 30"></polygon>
    </defs>
    <g id="isometric" stroke="none" stroke-width="1" fill="none" fill-rule="evenodd">
        <g id="Group-3" transform="translate(-2.000000, 0.000000)">
            <mask id="mask-2" fill="white">
                <use xlink:href="#path-1"></use>
            </mask>
            <g id="Clip-2"></g>
            <path d="M28.3510868,0 L17.1787956,0 C16.2679416,0 15.5295117,0.734296395 15.5295117,1.64060553 C15.5295117,2.54636083 16.2679416,3.28065722 17.1787956,3.28065722 L24.2787689,3.28065722 C24.2101706,3.33027184 24.1418507,3.38053261 24.0801679,3.44200858 L12.4414266,15.0149075 L12.4414266,7.86532515 C12.4414266,6.95938524 11.7029503,6.22527346 10.7919107,6.22527346 C10.3365069,6.22527346 9.92408151,6.40827064 9.62546064,6.70535838 C9.32702543,7.00286149 9.14230192,7.41210135 9.14230192,7.86532515 L9.14230192,18.9754465 C9.14230192,19.8810172 9.88073182,20.6154982 10.7915858,20.6154982 L21.9639234,20.6154982 C22.8749167,20.6154982 23.613393,19.8810172 23.613393,18.9747081 C23.613393,18.0691374 22.8749167,17.3344718 21.9639234,17.3344718 L14.864832,17.3344718 C14.9333839,17.2849033 15.0013788,17.234781 15.0630152,17.1734896 L26.7010603,5.60022154 L26.7010603,12.7501731 C26.7010603,13.656113 27.4393046,14.3904094 28.3503442,14.3904094 C28.8058408,14.3904094 29.2184054,14.2074122 29.5168406,13.9101398 C29.8153223,13.6126829 29.9999997,13.2032584 29.9999997,12.7501731 L29.9999997,1.64005169 C30.0005563,0.734665621 29.2617551,0 28.3510868,0 L28.3510868,0 Z M25.3761002,4.79438171 L3.09158597,4.79438171 C2.48965653,4.79438171 2,5.28092807 2,5.8789804 L2,26.9155859 C2,27.5134075 2.48965653,28 3.09158597,28 L24.2844679,28 C24.8863973,28 25.3761002,27.5134075 25.3761002,26.9155859 C25.431146,11.6034482 25.431146,4.22971347 25.3761002,4.79438171 Z" id="Fill-1" fill="#E0B8FF" mask="url(#mask-2)"></path>
        </g>
    </g>
</svg>