<?xml version="1.0" encoding="UTF-8"?>
<svg width="56px" height="56px" viewBox="0 0 56 56" version="1.1" xmlns="http://www.w3.org/2000/svg" xmlns:xlink="http://www.w3.org/1999/xlink">
    <!-- Generator: Sketch 60.1 (88133) - https://sketch.com -->
    <title>Fill 1</title>
    <desc>Created with Sketch.</desc>
    <defs>
        <linearGradient x1="50%" y1="0%" x2="50%" y2="100%" id="linearGradient-1">
            <stop stop-color="#FFCEDD" offset="0%"></stop>
            <stop stop-color="#FFA0B9" offset="100%"></stop>
        </linearGradient>
    </defs>
    <g id="slices" stroke="none" stroke-width="1" fill="none" fill-rule="evenodd">
        <g id="record-随机" fill="url(#linearGradient-1)">
            <path d="M45.4833884,56 C44.5535558,56.006085 43.6597275,55.5889723 42.9992695,54.840261 C42.3369574,54.0894307 41.9642947,53.0674977 41.9642947,52.0010644 C41.9642947,50.9348361 42.3369574,49.9129714 42.9992695,49.1621411 L44.048957,48.0024692 L34.9873506,48.0024692 C33.778335,48.0051352 32.6538877,47.294567 32.0133457,46.1229327 L15.5694177,16.0117943 L3.49875899,16.0117943 C1.56642729,16.0117943 0,14.2213949 0,12.0129258 C0,9.80438829 1.56642729,8.01405725 3.49875899,8.01405725 L17.4935557,8.01405725 C18.7023321,8.01139134 19.8267794,8.72189116 20.4676205,9.89359382 L26.2755006,20.4904587 L32.0133457,9.89359382 C32.6538877,8.72189116 33.778335,8.01139134 34.9873506,8.01405725 L44.048957,8.01405725 L42.9992695,6.85438538 C41.6274569,5.28641877 41.6274569,2.74416372 42.9992695,1.17592369 C44.3713213,-0.391974563 46.5956947,-0.391974563 47.9675073,1.17592369 L54.9650252,9.17366077 C55.6273971,9.92455942 56,10.9466976 56,12.0129258 C56,13.0790857 55.6273971,14.1012238 54.9650252,14.8521225 L47.9675073,22.8495861 C46.5956947,24.4177578 44.3713213,24.4177578 42.9992695,22.8495861 C41.6274569,21.2816195 41.6274569,18.7393645 42.9992695,17.1713979 L44.048957,16.0117943 L37.051439,16.0117943 L30.4038568,28.0081265 L36.9114887,40.0047322 L43.9090066,40.0047322 L42.8593191,38.8450603 C41.4875066,37.2770937 41.4875066,34.7348386 42.8593191,33.166667 C44.2314307,31.5987003 46.4557443,31.5987003 47.8276167,33.166667 L54.8251347,41.164404 C55.4874468,41.9152343 55.8600496,42.9373725 55.8600496,44.0036007 C55.8600496,45.0697606 55.4874468,46.0918987 54.8251347,46.8427974 L47.8276167,54.840261 C47.2019668,55.5507608 46.3648364,55.9649343 45.4833884,56 Z M17.7592763,48 L3.55190383,48 C1.59022074,48 0,46.2129176 0,44.0085399 C0,41.804094 1.59022074,40.0170798 3.55190383,40.0170798 L15.8412482,40.0170798 L17.084536,37.8217086 C18.1536894,35.9701487 20.3561127,35.443003 22.0037103,36.6441937 C23.6516115,37.8456573 24.1207664,40.3206355 23.0515523,42.1724683 L20.7429362,46.1639284 C20.0909038,47.3059636 18.9669843,47.9976119 17.7592763,48 Z" id="Fill-1"></path>
        </g>
    </g>
</svg>