<?xml version="1.0" encoding="iso-8859-1"?>
<!-- Generator: Adobe Illustrator 19.0.0, SVG Export Plug-In . SVG Version: 6.00 Build 0)  -->
<svg version="1.1" id="&#x56FE;&#x5C42;_1" xmlns="http://www.w3.org/2000/svg" xmlns:xlink="http://www.w3.org/1999/xlink" x="0px"
	 y="0px" viewBox="0 0 40 40" style="enable-background:new 0 0 40 40;" xml:space="preserve">
<g id="XMLID_80_">
	<g>
		<rect id="XMLID_21_" x="2.868" y="27.395" style="fill:#AAACB4;" width="34.227" height="1.751"/>
		<path style="fill:#3E3A39;" d="M37.323,29.375H2.639v-2.208h34.684V29.375z M3.096,28.918h33.77v-1.294H3.096V28.918z"/>
	</g>
	<g>
		<path id="XMLID_20_" style="fill:#AAACB4;" d="M2.868,17.603h4.188c0,0,1.193-0.051,2.056-0.685s2.183-1.65,2.183-1.65h12.589
			l0.736,0.685h12.475v11.442H2.868V17.603z"/>
		<path style="fill:#3E3A39;" d="M37.323,27.624H2.639V17.375H7.05c0.074-0.004,1.156-0.074,1.926-0.641
			c0.851-0.626,2.166-1.637,2.179-1.647l0.062-0.047h12.757l0.736,0.685h12.613V27.624z M3.096,27.167h33.77V16.182H24.53
			l-0.736-0.685H11.372c-0.271,0.208-1.376,1.055-2.125,1.605c-0.909,0.668-2.13,0.727-2.181,0.729l-0.01,0H3.096V27.167z"/>
	</g>
	<g>
		<path id="XMLID_19_" style="fill:#F39800;" d="M2.868,15.281h8.338l-2.418,1.885c0,0-0.267,0.438-1.751,0.438s-4.169,0-4.169,0
			V15.281z"/>
		<path style="fill:#3E3A39;" d="M7.036,17.832H2.639v-2.779h9.231l-2.918,2.275C8.834,17.471,8.402,17.832,7.036,17.832z
			 M3.096,17.375h3.94c1.192,0,1.518-0.291,1.559-0.334l0.02-0.045l0.031-0.011l1.893-1.476H3.096V17.375z"/>
	</g>
	<g>
		<circle id="XMLID_18_" style="fill:#AAACB4;" cx="13.528" cy="17.451" r="1.732"/>
		<path style="fill:#3E3A39;" d="M13.528,19.412c-1.081,0-1.961-0.88-1.961-1.961c0-1.081,0.88-1.961,1.961-1.961
			s1.961,0.88,1.961,1.961C15.488,18.532,14.609,19.412,13.528,19.412z M13.528,15.947c-0.829,0-1.504,0.675-1.504,1.504
			s0.675,1.504,1.504,1.504s1.504-0.675,1.504-1.504S14.357,15.947,13.528,15.947z"/>
	</g>
	<g>
		<circle id="XMLID_17_" style="fill:#AAACB4;" cx="13.528" cy="17.451" r="1.447"/>
		<path style="fill:#3E3A39;" d="M13.528,19.126c-0.924,0-1.675-0.751-1.675-1.675c0-0.924,0.751-1.675,1.675-1.675
			c0.924,0,1.675,0.751,1.675,1.675C15.203,18.375,14.451,19.126,13.528,19.126z M13.528,16.233c-0.672,0-1.218,0.547-1.218,1.218
			c0,0.672,0.547,1.218,1.218,1.218s1.218-0.547,1.218-1.218C14.746,16.779,14.2,16.233,13.528,16.233z"/>
	</g>
	<g>
		<circle id="XMLID_16_" style="fill:#AAACB4;" cx="17.801" cy="17.451" r="1.732"/>
		<path style="fill:#3E3A39;" d="M17.801,19.412c-1.081,0-1.961-0.88-1.961-1.961c0-1.081,0.88-1.961,1.961-1.961
			c1.081,0,1.961,0.88,1.961,1.961C19.762,18.532,18.882,19.412,17.801,19.412z M17.801,15.947c-0.829,0-1.504,0.675-1.504,1.504
			s0.675,1.504,1.504,1.504s1.504-0.675,1.504-1.504S18.631,15.947,17.801,15.947z"/>
	</g>
	<g>
		<circle id="XMLID_15_" style="fill:#AAACB4;" cx="17.801" cy="17.451" r="1.447"/>
		<path style="fill:#3E3A39;" d="M17.801,19.126c-0.924,0-1.675-0.751-1.675-1.675c0-0.924,0.751-1.675,1.675-1.675
			c0.924,0,1.675,0.751,1.675,1.675C19.477,18.375,18.725,19.126,17.801,19.126z M17.801,16.233c-0.672,0-1.218,0.547-1.218,1.218
			c0,0.672,0.547,1.218,1.218,1.218c0.672,0,1.218-0.547,1.218-1.218C19.02,16.779,18.473,16.233,17.801,16.233z"/>
	</g>
	<g>
		<circle id="XMLID_14_" style="fill:#AAACB4;" cx="22.075" cy="17.451" r="1.732"/>
		<path style="fill:#3E3A39;" d="M22.075,19.412c-1.081,0-1.961-0.88-1.961-1.961c0-1.081,0.88-1.961,1.961-1.961
			c1.081,0,1.961,0.88,1.961,1.961C24.036,18.532,23.156,19.412,22.075,19.412z M22.075,15.947c-0.829,0-1.504,0.675-1.504,1.504
			s0.675,1.504,1.504,1.504s1.504-0.675,1.504-1.504S22.904,15.947,22.075,15.947z"/>
	</g>
	<g>
		<circle id="XMLID_13_" style="fill:#AAACB4;" cx="22.075" cy="17.451" r="1.447"/>
		<path style="fill:#3E3A39;" d="M22.075,19.126c-0.924,0-1.675-0.751-1.675-1.675c0-0.924,0.751-1.675,1.675-1.675
			c0.924,0,1.675,0.751,1.675,1.675C23.75,18.375,22.999,19.126,22.075,19.126z M22.075,16.233c-0.672,0-1.218,0.547-1.218,1.218
			c0,0.672,0.547,1.218,1.218,1.218c0.672,0,1.218-0.547,1.218-1.218C23.293,16.779,22.747,16.233,22.075,16.233z"/>
	</g>
	<g>
		<circle id="XMLID_12_" style="fill:#AAACB4;" cx="4.981" cy="21.715" r="1.732"/>
		<path style="fill:#3E3A39;" d="M4.981,23.676c-1.081,0-1.961-0.88-1.961-1.961c0-1.081,0.88-1.961,1.961-1.961
			s1.961,0.88,1.961,1.961C6.941,22.796,6.062,23.676,4.981,23.676z M4.981,20.211c-0.829,0-1.504,0.675-1.504,1.504
			s0.675,1.504,1.504,1.504s1.504-0.675,1.504-1.504S5.81,20.211,4.981,20.211z"/>
	</g>
	<g>
		<circle id="XMLID_11_" style="fill:#AAACB4;" cx="4.981" cy="21.715" r="1.447"/>
		<path style="fill:#3E3A39;" d="M4.981,23.39c-0.924,0-1.675-0.751-1.675-1.675c0-0.924,0.751-1.675,1.675-1.675
			s1.675,0.751,1.675,1.675C6.656,22.639,5.904,23.39,4.981,23.39z M4.981,20.497c-0.672,0-1.218,0.547-1.218,1.218
			c0,0.672,0.547,1.218,1.218,1.218s1.218-0.547,1.218-1.218C6.199,21.043,5.652,20.497,4.981,20.497z"/>
	</g>
	<g>
		<path id="XMLID_10_" style="fill:#FFFFFF;" d="M2.868,15.148v-0.933c0,0-0.038-0.676,0.752-0.676s32.666,0,32.666,0
			s0.847-0.095,0.847,0.714s0,1.694,0,1.694H24.759l-0.723-0.73H11.282L2.868,15.148z"/>
		<path style="fill:#3E3A39;" d="M37.361,16.176H24.664l-0.723-0.73H11.282l-8.642-0.072V14.22c-0.002-0.064-0.001-0.381,0.235-0.63
			c0.175-0.185,0.426-0.279,0.745-0.279h32.655c0.093-0.008,0.506-0.027,0.804,0.239c0.129,0.115,0.283,0.331,0.283,0.704V16.176z
			 M24.854,15.719h12.05v-1.466c0-0.165-0.042-0.283-0.129-0.362c-0.14-0.127-0.384-0.133-0.465-0.125l-0.024,0.001H3.62
			c-0.187,0-0.325,0.045-0.411,0.133c-0.118,0.122-0.113,0.302-0.113,0.303l0,0.006l0,0.004v0.706l8.187,0.068l12.847,0
			L24.854,15.719z"/>
	</g>
	<g>
		<path id="XMLID_9_" style="fill:#FFFFFF;" d="M14.045,12.584h-1.01c-0.429,0-0.777,0.348-0.777,0.777v0.175h2.564v-0.175
			C14.822,12.932,14.474,12.584,14.045,12.584z"/>
		<path style="fill:#3E3A39;" d="M15.051,13.764h-3.02V12.8c0-0.245,0.199-0.444,0.444-0.444h2.132c0.245,0,0.444,0.199,0.444,0.444
			V13.764z M12.487,13.307h2.107v-0.495h-2.107V13.307z"/>
	</g>
	<g>
		<path id="XMLID_8_" style="fill:#FFFFFF;" d="M18.348,12.584h-1.01c-0.429,0-0.777,0.348-0.777,0.777v0.175h2.564v-0.175
			C19.124,12.932,18.777,12.584,18.348,12.584z"/>
		<path style="fill:#3E3A39;" d="M19.353,13.764h-3.02V12.8c0-0.245,0.199-0.444,0.444-0.444h2.132c0.245,0,0.444,0.199,0.444,0.444
			V13.764z M16.789,13.307h2.107v-0.495h-2.107V13.307z"/>
	</g>
	<g>
		<path id="XMLID_7_" style="fill:#FFFFFF;" d="M9.743,12.584h-1.01c-0.429,0-0.777,0.348-0.777,0.777v0.175h2.564v-0.175
			C10.52,12.932,10.172,12.584,9.743,12.584z"/>
		<path style="fill:#3E3A39;" d="M10.749,13.764h-3.02V12.8c0-0.245,0.199-0.444,0.444-0.444h2.132c0.245,0,0.444,0.199,0.444,0.444
			V13.764z M8.185,13.307h2.107v-0.495H8.185V13.307z"/>
	</g>
	<g>
		<path id="XMLID_6_" style="fill:#FFFFFF;" d="M5.39,12.584H4.38c-0.429,0-0.777,0.348-0.777,0.777v0.175h2.564v-0.175
			C6.167,12.932,5.819,12.584,5.39,12.584z"/>
		<path style="fill:#3E3A39;" d="M6.396,13.764h-3.02V12.8c0-0.245,0.199-0.444,0.444-0.444h2.132c0.245,0,0.444,0.199,0.444,0.444
			V13.764z M3.832,13.307h2.107v-0.495H3.832V13.307z"/>
	</g>
	<g>
		<path id="XMLID_5_" style="fill:#FFFFFF;" d="M22.65,12.584h-1.01c-0.429,0-0.777,0.348-0.777,0.777v0.175h2.564v-0.175
			C23.426,12.932,23.079,12.584,22.65,12.584z"/>
		<path style="fill:#3E3A39;" d="M23.655,13.764h-3.02V12.8c0-0.245,0.199-0.444,0.444-0.444h2.132c0.245,0,0.444,0.199,0.444,0.444
			V13.764z M21.091,13.307h2.107v-0.495h-2.107V13.307z"/>
	</g>
	<g>
		<path id="XMLID_4_" style="fill:#FFFFFF;" d="M26.952,12.584h-1.01c-0.429,0-0.777,0.348-0.777,0.777v0.175h2.564v-0.175
			C27.729,12.932,27.381,12.584,26.952,12.584z"/>
		<path style="fill:#3E3A39;" d="M27.957,13.764h-3.02V12.8c0-0.245,0.199-0.444,0.444-0.444h2.132c0.245,0,0.444,0.199,0.444,0.444
			V13.764z M25.394,13.307H27.5v-0.495h-2.107V13.307z"/>
	</g>
	<g>
		<path id="XMLID_3_" style="fill:#FFFFFF;" d="M31.254,12.584h-1.01c-0.429,0-0.777,0.348-0.777,0.777v0.175h2.564v-0.175
			C32.031,12.932,31.683,12.584,31.254,12.584z"/>
		<path style="fill:#3E3A39;" d="M32.259,13.764h-3.02V12.8c0-0.245,0.199-0.444,0.444-0.444h2.132c0.245,0,0.444,0.199,0.444,0.444
			V13.764z M29.696,13.307h2.107v-0.495h-2.107V13.307z"/>
	</g>
	<g>
		<path id="XMLID_2_" style="fill:#FFFFFF;" d="M35.505,12.584h-1.01c-0.429,0-0.777,0.348-0.777,0.777v0.175h2.564v-0.175
			C36.282,12.932,35.934,12.584,35.505,12.584z"/>
		<path style="fill:#3E3A39;" d="M36.511,13.764h-3.02V12.8c0-0.245,0.199-0.444,0.444-0.444h2.132c0.245,0,0.444,0.199,0.444,0.444
			V13.764z M33.947,13.307h2.107v-0.495h-2.107V13.307z"/>
	</g>
	<g>
		<path id="XMLID_1_" style="fill:#EFEFEF;" d="M31.474,18.726h-0.619c-0.756,0-1.375-0.619-1.375-1.375v-0.708
			c0-0.756,0.619-1.375,1.375-1.375h0.619c0.756,0,1.375,0.619,1.375,1.375v0.708C32.849,18.108,32.23,18.726,31.474,18.726z"/>
		<path style="fill:#3E3A39;" d="M32.31,18.955h-2.29c-0.423,0-0.768-0.345-0.768-0.768v-2.379c0-0.423,0.345-0.768,0.768-0.768
			h2.29c0.424,0,0.768,0.345,0.768,0.768v2.379C33.078,18.61,32.733,18.955,32.31,18.955z M30.02,15.497
			c-0.172,0-0.311,0.14-0.311,0.311v2.379c0,0.172,0.14,0.311,0.311,0.311h2.29c0.172,0,0.311-0.14,0.311-0.311v-2.379
			c0-0.172-0.14-0.311-0.311-0.311H30.02z"/>
	</g>
</g>
</svg>
