<?xml version="1.0" encoding="UTF-8"?>
<svg width="44px" height="44px" viewBox="0 0 44 44" version="1.1" xmlns="http://www.w3.org/2000/svg" xmlns:xlink="http://www.w3.org/1999/xlink">
    <!-- Generator: Sketch 60.1 (88133) - https://sketch.com -->
    <title>Group 3</title>
    <desc>Created with Sketch.</desc>
    <defs>
        <polygon id="path-1" points="0 0 44 0 44 44 0 44"></polygon>
    </defs>
    <g id="slices" stroke="none" stroke-width="1" fill="none" fill-rule="evenodd">
        <g id="POP-up-windows-close" transform="translate(-2.000000, -2.000000)">
            <g id="Group-3" transform="translate(2.000000, 2.000000)">
                <mask id="mask-2" fill="white">
                    <use xlink:href="#path-1"></use>
                </mask>
                <g id="Clip-2"></g>
                <path d="M43.0533945,38.4991217 L26.4312804,21.5145269 L42.1007428,5.49849427 C43.3677327,4.20343923 43.3677327,2.26098215 42.1007428,0.971197171 C40.8338143,-0.318587806 38.9336057,-0.32373239 37.6714037,0.971197171 L22.0018798,16.9872925 L6.33223322,0.971197171 C5.06530473,-0.32373239 3.1648506,-0.32373239 1.90289407,0.971197171 C0.640876147,2.26612673 0.635842807,4.2083956 1.90289407,5.49849427 L17.6363168,21.4490903 L0.950242407,38.4991217 C-0.316747469,39.7940512 -0.316747469,41.7362573 0.950242407,43.026356 C1.58370665,43.6737581 2.21723228,43.9948554 3.1648506,43.9948554 C4.11265307,43.9948554 4.74605593,43.6737581 5.37964294,43.026356 L22.0853596,25.9513546 L38.9383936,43.0311869 C39.5718578,43.6787144 40.2053834,44 41.1531859,44 C42.1007428,44 42.7342685,43.6787144 43.0533945,43.0311869 C44.3155352,41.7362573 44.3155352,39.7940512 43.0533945,38.4991217" id="Fill-1" fill="#FFFFFF" mask="url(#mask-2)"></path>
            </g>
        </g>
    </g>
</svg>