<?xml version="1.0" encoding="UTF-8"?>
<svg width="48px" height="44px" viewBox="0 0 48 44" version="1.1" xmlns="http://www.w3.org/2000/svg" xmlns:xlink="http://www.w3.org/1999/xlink">
    <!-- Generator: Sketch 60.1 (88133) - https://sketch.com -->
    <title>Fill 1</title>
    <desc>Created with Sketch.</desc>
    <g id="改蓝色" stroke="none" stroke-width="1" fill="none" fill-rule="evenodd">
        <g id="01-blue-landscape" transform="translate(-1522.000000, -1416.000000)" fill="#32C5FF">
            <path d="M1547.08526,1428.72107 L1546.73083,1428.72107 L1546.73083,1419.7194 C1546.73083,1416.3521 1545.03949,1414.94896 1542.95283,1416.86621 L1523.56111,1434.66739 C1521.47842,1436.57657 1521.47842,1439.70337 1523.5684,1441.61263 L1542.81254,1459.2366 C1544.89892,1461.14578 1546.7345,1459.20697 1546.7345,1456.3667 L1546.7345,1446.86788 L1549.64805,1446.86788 C1558.06453,1446.86788 1564.48646,1451.01457 1568.41578,1459.02177 C1569.18777,1460.4757 1570,1460.15971 1570,1459.02177 C1569.83014,1444.76066 1559.2462,1428.72107 1547.08526,1428.72107 Z" id="Fill-1" transform="translate(1546.000000, 1438.000000) scale(-1, 1) translate(-1546.000000, -1438.000000) "></path>
        </g>
    </g>
</svg>