<?xml version="1.0" encoding="UTF-8"?>
<svg width="246px" height="246px" viewBox="0 0 246 246" version="1.1" xmlns="http://www.w3.org/2000/svg" xmlns:xlink="http://www.w3.org/1999/xlink">
    <!-- Generator: Sketch 60.1 (88133) - https://sketch.com -->
    <title>圆盘</title>
    <desc>Created with Sketch.</desc>
    <defs>
        <circle id="path-1" cx="173" cy="172" r="123"></circle>
        <filter x="-3.0%" y="-3.5%" width="111.0%" height="111.0%" filterUnits="objectBoundingBox" id="filter-2">
            <feMorphology radius="1" operator="dilate" in="SourceAlpha" result="shadowSpreadOuter1"></feMorphology>
            <feOffset dx="6" dy="5" in="shadowSpreadOuter1" result="shadowOffsetOuter1"></feOffset>
            <feGaussianBlur stdDeviation="2.5" in="shadowOffsetOuter1" result="shadowBlurOuter1"></feGaussianBlur>
            <feColorMatrix values="0 0 0 0 0   0 0 0 0 0   0 0 0 0 0  0 0 0 0 0" type="matrix" in="shadowBlurOuter1"></feColorMatrix>
        </filter>
        <polygon id="path-3" points="0 0.173728058 240.826272 0.173728058 240.826272 241 0 241"></polygon>
    </defs>
    <g id="改蓝色" stroke="none" stroke-width="1" fill="none" fill-rule="evenodd">
        <g id="45-控件" transform="translate(-288.000000, -1039.000000)">
            <g id="转盘" transform="translate(238.000000, 990.000000)">
                <g id="圆盘">
                    <g id="椭圆形">
                        <use fill="black" fill-opacity="1" filter="url(#filter-2)" xlink:href="#path-1"></use>
                        <use fill="#FFFFFF" fill-rule="evenodd" xlink:href="#path-1"></use>
                    </g>
                    <g id="刻度" transform="translate(171.031205, 171.684048) rotate(43.000000) translate(-171.031205, -171.684048) translate(50.031205, 50.684048)">
                        <g id="Group-66" transform="translate(0.717334, 0.045678)">
                            <g id="Group-3">
                                <mask id="mask-4" fill="white">
                                    <use xlink:href="#path-3"></use>
                                </mask>
                                <g id="Clip-2"></g>
                                <path d="M240.826272,120.586829 C240.826272,187.089306 186.915439,241.000139 120.412963,241.000139 C53.9108331,241.000139 0,187.089306 0,120.586829 C0,54.0846999 53.9108331,0.17352 120.412963,0.17352 C186.915439,0.17352 240.826272,54.0846999 240.826272,120.586829" id="Fill-1" fill="#FFFFFF" mask="url(#mask-4)"></path>
                            </g>
                            <line x1="121.082126" y1="6.98550725" x2="123.410628" y2="234.014493" id="Stroke-4" stroke="#C27BFF"></line>
                            <line x1="108.275362" y1="8.14975845" x2="135.05314" y2="234.014493" id="Stroke-6" stroke="#C27BFF"></line>
                            <line x1="96.6328502" y1="10.4782609" x2="146.695652" y2="231.68599" id="Stroke-8" stroke="#C27BFF"></line>
                            <line x1="84.9903382" y1="12.8067633" x2="158.338164" y2="228.193237" id="Stroke-10" stroke="#C27BFF"></line>
                            <line x1="74.5120773" y1="17.4637681" x2="169.980676" y2="223.536232" id="Stroke-12" stroke="#C27BFF"></line>
                            <line x1="64.0338164" y1="23.2850242" x2="180.458937" y2="218.879227" id="Stroke-14" stroke="#C27BFF"></line>
                            <line x1="53.5555556" y1="30.2705314" x2="189.772947" y2="211.89372" id="Stroke-16" stroke="#C27BFF"></line>
                            <line x1="45.4057971" y1="37.2560386" x2="199.086957" y2="203.743961" id="Stroke-18" stroke="#C27BFF"></line>
                            <line x1="36.0917874" y1="45.4057971" x2="207.236715" y2="195.594203" id="Stroke-20" stroke="#C27BFF"></line>
                            <line x1="29.1062802" y1="54.7198068" x2="214.222222" y2="186.280193" id="Stroke-22" stroke="#C27BFF"></line>
                            <line x1="23.2850242" y1="65.1980676" x2="221.207729" y2="176.966184" id="Stroke-24" stroke="#C27BFF"></line>
                            <line x1="17.4637681" y1="75.6763285" x2="225.864734" y2="165.323671" id="Stroke-26" stroke="#C27BFF"></line>
                            <line x1="13.9710145" y1="87.3188406" x2="230.521739" y2="154.845411" id="Stroke-28" stroke="#C27BFF"></line>
                            <line x1="10.4782609" y1="98.9613527" x2="232.850242" y2="143.202899" id="Stroke-30" stroke="#C27BFF"></line>
                            <line x1="9.31400966" y1="110.603865" x2="235.178744" y2="131.560386" id="Stroke-32" stroke="#C27BFF"></line>
                            <line x1="8.14975845" y1="122.246377" x2="235.178744" y2="119.917874" id="Stroke-34" stroke="#C27BFF"></line>
                            <line x1="9.31400966" y1="133.888889" x2="235.178744" y2="107.111111" id="Stroke-36" stroke="#C27BFF"></line>
                            <line x1="10.4782609" y1="145.531401" x2="232.850242" y2="95.468599" id="Stroke-38" stroke="#C27BFF"></line>
                            <line x1="13.9710145" y1="157.173913" x2="229.357488" y2="84.9903382" id="Stroke-40" stroke="#C27BFF"></line>
                            <line x1="18.6280193" y1="167.652174" x2="224.700483" y2="73.3478261" id="Stroke-42" stroke="#C27BFF"></line>
                            <line x1="24.4492754" y1="178.130435" x2="220.043478" y2="62.8695652" id="Stroke-44" stroke="#C27BFF"></line>
                            <line x1="30.2705314" y1="188.608696" x2="213.057971" y2="53.5555556" id="Stroke-46" stroke="#C27BFF"></line>
                            <line x1="38.4202899" y1="197.922705" x2="206.072464" y2="44.2415459" id="Stroke-48" stroke="#C27BFF"></line>
                            <line x1="46.5700483" y1="206.072464" x2="196.758454" y2="36.0917874" id="Stroke-50" stroke="#C27BFF"></line>
                            <line x1="55.884058" y1="213.057971" x2="187.444444" y2="27.942029" id="Stroke-52" stroke="#C27BFF"></line>
                            <line x1="66.3623188" y1="220.043478" x2="178.130435" y2="22.1207729" id="Stroke-54" stroke="#C27BFF"></line>
                            <line x1="76.8405797" y1="224.700483" x2="166.487923" y2="16.2995169" id="Stroke-56" stroke="#C27BFF"></line>
                            <line x1="88.4830918" y1="229.357488" x2="156.009662" y2="12.8067633" id="Stroke-58" stroke="#C27BFF"></line>
                            <line x1="100.125604" y1="231.68599" x2="144.36715" y2="9.31400966" id="Stroke-60" stroke="#C27BFF"></line>
                            <line x1="111.768116" y1="234.014493" x2="132.724638" y2="8.14975845" id="Stroke-62" stroke="#C27BFF"></line>
                            <path d="M228.193237,120.5 C228.193237,178.691466 181.019622,225.864734 122.828502,225.864734 C64.6370367,225.864734 17.4637681,178.691466 17.4637681,120.5 C17.4637681,62.3085343 64.6370367,15.1352657 122.828502,15.1352657 C181.019622,15.1352657 228.193237,62.3085343 228.193237,120.5" id="Fill-64" fill="#FFFFFF"></path>
                        </g>
                    </g>
                </g>
            </g>
        </g>
    </g>
</svg>