<?xml version="1.0" encoding="UTF-8"?>
<svg width="28px" height="28px" viewBox="0 0 28 28" version="1.1" xmlns="http://www.w3.org/2000/svg" xmlns:xlink="http://www.w3.org/1999/xlink">
    <!-- Generator: Sketch 60.1 (88133) - https://sketch.com -->
    <title>rotate</title>
    <desc>Created with Sketch.</desc>
    <defs>
        <polygon id="path-1" points="0 0 28 0 28 28 0 28"></polygon>
    </defs>
    <g id="rotate" stroke="none" stroke-width="1" fill="none" fill-rule="evenodd">
        <g id="Group-3">
            <mask id="mask-2" fill="white">
                <use xlink:href="#path-1"></use>
            </mask>
            <g id="Clip-2"></g>
            <path d="M13.9140643,17.1381501 C12.3645916,17.1381501 11.0968937,15.882635 11.0968937,14.2085195 C11.0968937,12.5345675 12.3645916,11.2788889 13.9140643,11.2788889 C15.463537,11.2788889 16.7312762,12.5345675 16.7312762,14.2085195 C16.7312762,15.882635 15.463537,17.1381501 13.9140643,17.1381501 L13.9140643,17.1381501 Z M20.6753398,6.95425051 C17.0130098,3.60618296 11.3785447,3.46664949 7.57528592,6.53577272 C3.77223349,9.60493682 2.64529921,15.0455568 5.18081881,19.230866 C7.15278873,22.7184671 11.0968937,24.671486 15.1817622,24.1135156 C19.2667545,23.5555044 22.5065874,20.7654481 23.6334392,16.8592058 C23.915214,15.7431015 25.0419419,15.1850903 26.1689175,15.4641981 C27.2957692,15.7431015 27.8592777,16.8592058 27.5775028,17.9751874 C25.3237168,25.3689899 17.5763944,29.5542991 10.2517342,27.4617058 C2.78618663,25.3689899 -1.58045674,17.696284 0.532400599,10.3024815 C1.94098592,5.55920193 5.603316,1.93206744 10.3926216,0.537018855 C15.1817622,-0.858029728 20.2528839,0.537018855 23.7743266,3.88508641 L26.4505273,1.23452271 C26.7323021,0.955455775 27.1549644,0.815922307 27.5775028,0.955455775 C27.7183902,1.37405618 28,1.6530005 28,2.07160091 L28,10.7209185 C28,11.2788889 27.5775028,11.6974893 27.0140769,11.6974893 L18.4216363,11.6974893 C17.9990566,11.6974893 17.5763944,11.4184223 17.4355069,11.1395189 C17.2947846,10.8604519 17.4355069,10.3024815 17.7172818,10.0233737 L20.6753398,6.95425051 Z" id="Fill-1" fill="#E0B8FF" mask="url(#mask-2)"></path>
        </g>
    </g>
</svg>