<?xml version="1.0" encoding="UTF-8"?>
<svg width="36px" height="36px" viewBox="0 0 36 36" version="1.1" xmlns="http://www.w3.org/2000/svg" xmlns:xlink="http://www.w3.org/1999/xlink">
    <!-- Generator: Sketch 60.1 (88133) - https://sketch.com -->
    <title>rotate</title>
    <desc>Created with Sketch.</desc>
    <g id="改蓝色" stroke="none" stroke-width="1" fill="none" fill-rule="evenodd">
        <g id="45-控件" transform="translate(-726.000000, -1392.000000)" fill="#0091FF">
            <g id="rotate" transform="translate(726.000000, 1392.000000)">
                <g id="Group-3">
                    <path d="M26.5825798,8.94117923 C21.8738697,4.63652094 14.6295575,4.45712077 9.73965333,8.40313635 C4.85001449,12.3492045 3.40109898,19.3442873 6.66105276,24.7253992 C9.19644266,29.2094577 14.2674347,31.720482 19.5194085,31.0030915 C24.7715415,30.2856485 28.937041,26.6984333 30.3858504,21.6761217 C30.7481323,20.2411306 32.1967825,19.5236875 33.6457511,19.8825404 C35.0945605,20.2411306 35.8190713,21.6761217 35.4567893,23.1109553 C32.5590644,32.6172727 22.5982213,37.9983846 13.1808011,35.3079075 C3.58223995,32.6172727 -2.03201581,22.7523651 0.684515056,13.2460477 C2.49555332,7.14754534 7.20426342,2.48408671 13.3619421,0.690452814 C19.5194085,-1.10318108 26.0394222,0.690452814 30.5669913,4.9951111 L34.0078208,1.58724349 C34.3701027,1.22844314 34.9135256,1.04904297 35.4567893,1.22844314 C35.6379303,1.76664366 36,2.12528636 36,2.66348688 L36,13.784038 C36,14.5014285 35.4567893,15.039629 34.7323846,15.039629 L23.684961,15.039629 C23.1416442,15.039629 22.5982213,14.6808287 22.4170804,14.3222385 C22.2361516,13.9634382 22.4170804,13.2460477 22.7793623,12.8871948 L26.5825798,8.94117923 Z" id="Fill-1"></path>
                </g>
            </g>
        </g>
    </g>
</svg>