<?xml version="1.0" encoding="UTF-8"?>
<svg width="40px" height="37px" viewBox="0 0 40 37" version="1.1" xmlns="http://www.w3.org/2000/svg" xmlns:xlink="http://www.w3.org/1999/xlink">
    <!-- Generator: Sketch 60.1 (88133) - https://sketch.com -->
    <title>Group 9</title>
    <desc>Created with Sketch.</desc>
    <g id="改蓝色" stroke="none" stroke-width="1" fill="none" fill-rule="evenodd">
        <g id="45-控件" transform="translate(-948.000000, -1390.000000)">
            <g id="Group-9" transform="translate(941.000000, 1385.000000)">
                <line x1="34" y1="8" x2="12" y2="39" id="Line" stroke="#0091FF" stroke-width="6" stroke-linecap="round"></line>
                <path d="M31.975463,15.4077672 C27.5514299,11.3599158 20.7450907,11.1912183 16.1508181,14.9018228 C11.5567947,18.6124768 10.195477,25.1902477 13.258342,30.2503337 C15.6404486,34.4668826 20.404861,36.8281045 25.3393136,36.153512 C30.2739157,35.4788701 34.1875793,32.1056607 35.5487973,27.3829697 C35.8891766,26.0335871 37.250245,25.3589452 38.6116125,25.6963897 C39.9728305,26.0335871 40.6535392,27.3829697 40.3131599,28.7322041 C37.5906243,37.6713945 28.231989,42.7314805 19.3839226,40.2015117 C10.3656666,37.6713945 5.09083482,28.3950067 7.64313098,19.4558162 C9.34467837,13.7211377 13.7687116,9.3358913 19.5541123,7.64926184 C25.3393136,5.96263239 31.4651434,7.64926184 35.7189869,11.6971132 L38.9517924,8.49255186 C39.2921717,8.15515679 39.8027406,7.98645926 40.3131599,8.15515679 C40.4833495,8.6612494 40.8235294,8.99849623 40.8235294,9.50458883 L40.8235294,19.9617112 C40.8235294,20.6363037 40.3131599,21.1423963 39.6325509,21.1423963 L29.2530271,21.1423963 C28.7425579,21.1423963 28.231989,20.8050012 28.0617994,20.4678038 C27.8918091,20.1304087 28.0617994,19.4558162 28.4021786,19.1183718 L31.975463,15.4077672 Z" id="Fill-1" fill="#0091FF" transform="translate(23.911765, 23.926158) rotate(48.000000) translate(-23.911765, -23.926158) "></path>
            </g>
        </g>
    </g>
</svg>